<?xml version="1.0" encoding="utf-8"?>
<!-- Generator: Adobe Illustrator 22.0.0, SVG Export Plug-In . SVG Version: 6.00 Build 0)  -->
<svg version="1.1" xmlns="http://www.w3.org/2000/svg" xmlns:xlink="http://www.w3.org/1999/xlink" x="0px" y="0px"
	 viewBox="0 0 2100 700" enable-background="new 0 0 2100 700" xml:space="preserve">
<g id="favicon">
	<g>
		<g>
			<path fill="#231F20" d="M-433.326,1053.121c5.069-20.171,9.619-40.309,13.589-60.232l0,0h-171.588v0
				c-3.97,19.923-8.521,40.061-13.589,60.232c-13.879,55.231-31.817,110.708-53.555,162.813
				c-4.648,11.14-9.454,22.139-14.445,32.934h171.588c4.992-10.795,9.797-21.794,14.445-32.934h117.109v-162.813H-433.326z"/>
		</g>
		<g>
			<path fill="#774936" d="M-82.167,792.541h-309.784v-42.897h-189.624v42.409h-37.192c6.563,52.476,6.239,107.889,1.299,162.326
				h535.301V792.541z"/>
		</g>
		<g>
			<path fill="#774936" d="M-684.918,1449.156l493.802,0.488l108.948-228.134l-183.531-44.359l-60.446,110.167h-381.773
				c-3.392,5.905-6.711,11.135-9.922,15.632L-684.918,1449.156z"/>
		</g>
	</g>
	<rect x="-750.003" y="749.644" fill="none" width="700" height="700"/>
</g>
<g id="logo-v">
	<g>
		<g>
			<g>
				<path fill="#231F20" d="M-568.054,646.271c-4.701-4.414-7.052-11.323-7.052-20.728c0-7.912,1.548-16.626,4.645-26.146
					c3.096-9.517,8.141-17.744,15.137-24.684c6.993-6.937,15.881-10.406,26.662-10.406c12.613,0,18.921,5.504,18.921,16.513
					c0,6.424-1.835,12.328-5.504,17.717c-3.671,5.392-8.544,9.719-14.621,12.987c-6.08,3.268-12.557,5.133-19.437,5.59
					c-0.231,2.523-0.344,4.244-0.344,5.16c0,9.52,3.553,14.277,10.665,14.277c3.209,0,6.649-0.86,10.321-2.58
					c3.668-1.721,6.993-3.897,9.977-6.537c-3.096,16.973-13.017,25.458-29.758,25.458
					C-556.817,652.893-563.354,650.686-568.054,646.271z M-535.802,604.558c3.841-2.752,6.937-6.278,9.289-10.578
					c2.349-4.301,3.526-8.8,3.526-13.503c0-4.701-1.436-7.053-4.3-7.053c-4.016,0-7.999,3.642-11.955,10.923
					c-3.957,7.283-6.91,15.454-8.859,24.512C-543.744,608.746-539.646,607.31-535.802,604.558z"/>
			</g>
			<g>
				<path fill="#231F20" d="M-273.664,528.272c-4.071-3.497-8.802-5.246-14.19-5.246c-6.996,0-13.39,2.123-19.18,6.364
					c-5.791,4.243-9.834,11.868-12.126,22.877l-14.58,68.804h-0.038c-1.377,4.816-3.242,8.717-5.591,11.697
					c-2.352,2.983-5.134,4.472-8.343,4.472c-4.703,0-7.052-2.464-7.052-7.396c0-1.948,0.229-3.784,0.688-5.504l12.385-58.483h-24.77
					l-1.892,9.116v-1.204c0-2.636-1.147-4.757-3.44-6.364c-2.295-1.604-5.792-2.408-10.492-2.408
					c-9.289,0-17.287,3.241-23.996,9.719c-6.708,6.48-11.756,14.393-15.137,23.737c-3.25,8.984-4.923,17.564-5.05,25.751
					c-3.525,3.923-7.541,7.073-12.064,9.425c-5.735,2.983-11.984,4.473-18.749,4.473c-7.799,0-13.188-2.293-16.169-6.881
					c-2.983-4.585-4.472-11.236-4.472-19.953c0-11.696,1.69-23.85,5.074-36.466c3.381-12.613,7.827-23.076,13.331-31.392
					c5.504-8.313,11.293-12.471,17.373-12.471c3.669,0,6.335,0.976,7.999,2.924c1.661,1.951,2.494,4.473,2.494,7.568
					c0,3.328-0.804,6.537-2.408,9.633c-1.607,3.097-3.44,5.16-5.504,6.192c2.408,2.983,5.676,4.473,9.804,4.473
					c4.128,0,7.166-1.403,9.117-4.215c1.949-2.809,2.924-6.679,2.924-11.61c0-7.797-2.64-13.589-7.913-17.373
					c-5.276-3.784-12.213-5.676-20.813-5.676c-13.876,0-25.315,4.961-34.316,14.878c-9.003,9.921-15.54,21.818-19.609,35.692
					c-4.072,13.876-6.106,26.834-6.106,38.874c0,15.137,3.037,25.974,9.117,32.51c6.077,6.537,15.594,9.805,28.554,9.805
					c5.732,0,11.81-1.118,18.233-3.354c6.421-2.236,12.441-5.763,18.061-10.579c2.505-2.148,4.722-4.55,6.68-7.177
					c0.945,5.401,2.902,9.629,5.875,12.681c4.356,4.473,9.805,6.709,16.341,6.709c5.617,0,10.463-1.462,14.534-4.387
					c4.069-2.924,7.768-6.735,11.095-11.438c0.572,5.16,2.322,9.09,5.246,11.783c2.925,2.695,6.795,4.042,11.611,4.042
					c6.305,0,12.583-2.207,18.835-6.622c1.365-0.964,2.679-2.131,3.949-3.476l-1.63,7.69c-6.649,2.064-11.981,4.042-15.997,5.935
					c-4.013,1.892-7.28,4.442-9.805,7.654c-2.521,3.209-3.784,7.28-3.784,12.213c0,5.389,2.037,9.831,6.106,13.33
					c4.072,3.497,8.803,5.246,14.191,5.246c6.995,0,13.304-2.093,18.921-6.278c5.617-4.187,9.573-11.842,11.868-22.963
					l19.781-92.885h12.729l1.204-6.881h-12.557l2.925-13.589c1.031-5.16,2.692-8.799,4.988-10.923
					c2.292-2.12,4.644-3.182,7.052-3.182c1.833,0,3.381,0.516,4.645,1.548c1.261,1.032,1.892,2.468,1.892,4.301
					c0,0.574-0.115,2.123-0.344,4.644h8.085c0.344-2.063,0.516-4.413,0.516-7.052C-267.557,536.214-269.594,531.771-273.664,528.272
					z M-378.157,621.071c-1.032,4.704-2.954,8.402-5.763,11.095c-2.811,2.696-5.649,4.042-8.514,4.042
					c-2.408,0-4.446-0.801-6.106-2.407c-1.664-1.605-2.494-5.273-2.494-11.009c0-5.733,1.031-12.355,3.096-19.867
					c2.064-7.51,4.93-13.933,8.601-19.266c3.669-5.332,7.797-7.998,12.385-7.998c2.408,0,4.185,0.718,5.332,2.15
					c1.146,1.435,1.721,2.896,1.721,4.386L-378.157,621.071z M-343.414,666.137c-1.948,8.945-5.217,13.417-9.805,13.417
					c-1.833,0-3.439-0.602-4.815-1.806c-1.377-1.204-2.064-2.494-2.064-3.87c0-4.359,1.634-7.886,4.902-10.579
					c3.268-2.695,7.941-5.074,14.019-7.139L-343.414,666.137z"/>
			</g>
			<g>
				<path fill="#231F20" d="M-283.209,646.271c-4.701-4.414-7.053-11.323-7.053-20.728c0-7.912,1.548-16.626,4.645-26.146
					c3.096-9.517,8.141-17.744,15.137-24.684c6.993-6.937,15.881-10.406,26.661-10.406c12.613,0,18.921,5.504,18.921,16.513
					c0,6.424-1.835,12.328-5.504,17.717c-3.671,5.392-8.544,9.719-14.621,12.987c-6.079,3.268-12.557,5.133-19.437,5.59
					c-0.231,2.523-0.345,4.244-0.345,5.16c0,9.52,3.554,14.277,10.665,14.277c3.209,0,6.649-0.86,10.32-2.58
					c3.669-1.721,6.993-3.897,9.977-6.537c-3.096,16.973-13.016,25.458-29.758,25.458
					C-271.973,652.893-278.509,650.686-283.209,646.271z M-250.957,604.558c3.84-2.752,6.937-6.278,9.288-10.578
					c2.349-4.301,3.526-8.8,3.526-13.503c0-4.701-1.436-7.053-4.301-7.053c-4.015,0-7.998,3.642-11.954,10.923
					c-3.956,7.283-6.91,15.454-8.858,24.512C-258.9,608.746-254.801,607.31-250.957,604.558z"/>
			</g>
		</g>
		<g>
			<g>
				<path fill="#231F20" d="M-422.797,212.725c3.467-13.798,6.58-27.573,9.296-41.202l0,0h-117.375v0
					c-2.716,13.629-5.829,27.404-9.296,41.202c-9.494,37.781-21.764,75.731-36.635,111.373c-3.179,7.621-6.467,15.145-9.881,22.529
					h117.375c3.415-7.384,6.702-14.908,9.881-22.529h80.109V212.725H-422.797z"/>
			</g>
			<g>
				<path fill="#774936" d="M-182.586,34.474h-211.909V5.13h-129.713v29.01h-25.441c4.489,35.897,4.268,73.802,0.888,111.04h366.175
					V34.474z"/>
			</g>
			<g>
				<path fill="#774936" d="M-594.9,483.634l337.787,0.333l74.527-156.056l-125.545-30.344l-41.348,75.36h-261.153
					c-2.32,4.039-4.591,7.617-6.787,10.693L-594.9,483.634z"/>
			</g>
		</g>
	</g>
	<rect x="-750.003" y="-0.003" fill="none" width="700" height="700"/>
</g>
<g id="logo-h">
	<g>
		<g>
			<g>
				<path fill="#231F20" d="M751.542,489.534c-18.135-17.03-27.208-43.686-27.208-79.968c0-30.525,5.974-64.144,17.919-100.87
					c11.945-36.715,31.407-68.458,58.398-95.23c26.98-26.761,61.271-40.148,102.862-40.148c48.661,0,72.998,21.234,72.998,63.707
					c0,24.783-7.081,47.562-21.236,68.352c-14.164,20.801-32.963,37.495-56.407,50.105c-23.455,12.606-48.444,19.803-74.989,21.566
					c-0.893,9.736-1.328,16.374-1.328,19.908c0,36.727,13.708,55.083,41.144,55.083c12.38,0,25.654-3.319,39.818-9.954
					c14.153-6.639,26.98-15.037,38.49-25.22c-11.945,65.481-50.219,98.218-114.807,98.218
					C794.896,515.083,769.677,506.568,751.542,489.534z M875.971,328.604c14.818-10.617,26.763-24.222,35.836-40.811
					c9.063-16.593,13.605-33.95,13.605-52.095c0-18.137-5.538-27.21-16.591-27.21c-15.492,0-30.859,14.049-46.121,42.141
					c-15.264,28.099-26.66,59.623-34.178,94.567C845.331,344.76,861.144,339.222,875.971,328.604z"/>
			</g>
			<g>
				<path fill="#231F20" d="M1887.313,34.29c-15.707-13.492-33.958-20.24-54.747-20.24c-26.991,0-51.658,8.191-73.996,24.554
					c-22.342,16.37-37.94,45.788-46.782,88.26l-56.251,265.447h-0.146c-5.312,18.582-12.508,33.63-21.57,45.129
					c-9.072,11.51-19.806,17.252-32.187,17.252c-18.145,0-27.206-9.506-27.206-28.536c0-7.516,0.882-14.6,2.652-21.234
					l47.781-225.631h-95.562l-7.298,35.171v-4.645c0-10.169-4.427-18.352-13.273-24.554c-8.854-6.19-22.346-9.291-40.479-9.291
					c-35.838,0-66.694,12.505-92.576,37.495c-25.882,25.002-45.355,55.527-58.398,91.579c-12.537,34.66-18.994,67.761-19.483,99.347
					c-13.599,15.136-29.094,27.29-46.544,36.362c-22.127,11.51-46.236,17.256-72.334,17.256c-30.09,0-50.882-8.846-62.38-26.547
					c-11.51-17.689-17.254-43.35-17.254-76.98c0-45.125,6.522-92.013,19.577-140.687c13.045-48.663,30.196-89.029,51.432-121.11
					c21.234-32.07,43.571-48.112,67.024-48.112c14.155,0,24.441,3.764,30.859,11.28c6.409,7.528,9.623,17.256,9.623,29.199
					c0,12.84-3.101,25.22-9.291,37.164c-6.2,11.947-13.271,19.908-21.234,23.89c9.289,11.51,21.899,17.256,37.825,17.256
					c15.928,0,27.645-5.414,35.173-16.261c7.518-10.836,11.282-25.767,11.282-44.793c0-30.081-10.184-52.426-30.527-67.026
					c-20.354-14.6-47.118-21.897-80.297-21.897c-53.536,0-97.668,19.139-132.394,57.4c-34.736,38.275-59.952,84.176-75.652,137.703
					c-15.709,53.534-23.559,103.527-23.559,149.977c0,58.398,11.717,100.207,35.173,125.424
					c23.444,25.22,60.161,37.827,110.161,37.827c22.116,0,45.562-4.314,70.343-12.938c24.772-8.628,47.998-22.233,69.68-40.815
					c9.666-8.288,18.217-17.554,25.773-27.689c3.644,20.839,11.196,37.151,22.667,48.924c16.807,17.256,37.827,25.883,63.045,25.883
					c21.671,0,40.366-5.64,56.073-16.924c15.7-11.28,29.968-25.985,42.804-44.13c2.208,19.908,8.959,35.069,20.24,45.46
					c11.284,10.399,26.215,15.594,44.797,15.594c24.324,0,48.546-8.515,72.666-25.548c5.266-3.721,10.337-8.22,15.235-13.409
					l-6.287,29.667c-25.654,7.965-46.225,15.594-61.717,22.896c-15.481,7.298-28.088,17.139-37.827,29.531
					c-9.724,12.38-14.599,28.088-14.599,47.118c0,20.79,7.859,37.929,23.559,51.428c15.711,13.492,33.961,20.24,54.751,20.24
					c26.987,0,51.326-8.074,72.998-24.222c21.671-16.152,36.934-45.686,45.788-88.592l76.317-358.353h49.107l4.645-26.547h-48.444
					l11.284-52.426c3.979-19.908,10.387-33.946,19.245-42.141c8.843-8.179,17.915-12.275,27.206-12.275
					c7.072,0,13.043,1.989,17.919,5.972c4.864,3.982,7.298,9.521,7.298,16.593c0,2.215-0.445,8.191-1.326,17.915h31.192
					c1.326-7.961,1.989-17.026,1.989-27.206C1910.871,64.932,1903.012,47.789,1887.313,34.29z M1484.174,392.311
					c-3.982,18.149-11.397,32.417-22.233,42.804c-10.843,10.402-21.796,15.594-32.846,15.594c-9.291,0-17.154-3.089-23.559-9.287
					c-6.42-6.194-9.623-20.345-9.623-42.472c0-22.12,3.979-47.668,11.943-76.648c7.965-28.973,19.019-53.753,33.181-74.328
					c14.155-20.571,30.081-30.857,47.781-30.857c9.291,0,16.144,2.769,20.571,8.296c4.419,5.535,6.638,11.175,6.638,16.92
					L1484.174,392.311z M1618.214,566.179c-7.516,34.511-20.127,51.763-37.827,51.763c-7.072,0-13.27-2.321-18.578-6.966
					c-5.312-4.645-7.965-9.622-7.965-14.931c0-16.819,6.303-30.424,18.913-40.815c12.606-10.399,30.638-19.577,54.084-27.541
					L1618.214,566.179z"/>
			</g>
			<g>
				<path fill="#231F20" d="M1850.484,489.534c-18.137-17.03-27.21-43.686-27.21-79.968c0-30.525,5.972-64.144,17.919-100.87
					c11.943-36.715,31.407-68.458,58.398-95.23c26.98-26.761,61.269-40.148,102.86-40.148c48.662,0,72.998,21.234,72.998,63.707
					c0,24.783-7.079,47.562-21.234,68.352c-14.162,20.801-32.963,37.495-56.409,50.105c-23.453,12.606-48.444,19.803-74.987,21.566
					c-0.893,9.736-1.33,16.374-1.33,19.908c0,36.727,13.71,55.083,41.146,55.083c12.38,0,25.654-3.319,39.816-9.954
					c14.155-6.639,26.98-15.037,38.49-25.22c-11.943,65.481-50.215,98.218-114.807,98.218
					C1893.834,515.083,1868.618,506.568,1850.484,489.534z M1974.913,328.604c14.814-10.617,26.761-24.222,35.834-40.811
					c9.061-16.593,13.605-33.95,13.605-52.095c0-18.137-5.538-27.21-16.593-27.21c-15.489,0-30.857,14.049-46.119,42.141
					c-15.263,28.099-26.66,59.623-34.176,94.567C1944.271,344.76,1960.084,339.222,1974.913,328.604z"/>
			</g>
		</g>
		<g>
			<g>
				<path fill="#231F20" d="M297.029,300.641c4.854-19.318,9.213-38.604,13.014-57.684l0,0h-164.33v0
					c-3.802,19.081-8.16,38.367-13.014,57.684c-13.292,52.895-30.471,106.026-51.29,155.926
					c-4.451,10.669-9.054,21.203-13.834,31.541h164.33c4.781-10.338,9.383-20.872,13.834-31.541h112.156V300.641H297.029z"/>
			</g>
			<g>
				<path fill="#774936" d="M633.334,51.082h-296.68V10H155.051v40.616h-35.619c6.285,50.257,5.975,103.325,1.244,155.46h512.658
					V51.082z"/>
			</g>
			<g>
				<path fill="#774936" d="M56.08,679.923l472.915,0.467l104.34-218.484l-175.767-42.483l-57.889,105.507H34.054
					c-3.249,5.655-6.427,10.665-9.503,14.971L56.08,679.923z"/>
			</g>
		</g>
	</g>
	<rect fill="none" width="2100" height="700"/>
</g>
</svg>
