<?xml version="1.0" encoding="utf-8"?>
<!-- Generator: Adobe Illustrator 22.0.0, SVG Export Plug-In . SVG Version: 6.00 Build 0)  -->
<svg version="1.1" xmlns="http://www.w3.org/2000/svg" xmlns:xlink="http://www.w3.org/1999/xlink" x="0px" y="0px"
	 viewBox="0 0 700 700" enable-background="new 0 0 700 700" xml:space="preserve">
<g id="favicon">
	<g>
		<g>
			<path fill="#231F20" d="M316.677,303.478c5.069-20.171,9.619-40.309,13.589-60.232l0,0H158.678v0
				c-3.97,19.923-8.521,40.061-13.589,60.232c-13.879,55.231-31.817,110.709-53.555,162.813
				c-4.648,11.14-9.454,22.139-14.445,32.934h171.588c4.992-10.795,9.797-21.794,14.445-32.934h117.109V303.478H316.677z"/>
		</g>
		<g>
			<path fill="#774936" d="M667.836,42.897H358.051V0H168.428v42.409h-37.192c6.563,52.476,6.239,107.889,1.299,162.326h535.301
				V42.897z"/>
		</g>
		<g>
			<path fill="#774936" d="M65.085,699.513L558.887,700l108.948-228.134l-183.531-44.359l-60.446,110.167H42.087
				c-3.392,5.905-6.711,11.136-9.922,15.632L65.085,699.513z"/>
		</g>
	</g>
	<rect fill="none" width="700" height="700"/>
</g>
<g id="logo-v">
</g>
<g id="logo-h">
</g>
</svg>
