<?xml version="1.0" encoding="utf-8"?>
<!-- Generator: Adobe Illustrator 22.0.0, SVG Export Plug-In . SVG Version: 6.00 Build 0)  -->
<svg version="1.1" id="Capa_1" xmlns="http://www.w3.org/2000/svg" xmlns:xlink="http://www.w3.org/1999/xlink" x="0px" y="0px"
	 viewBox="0 0 714 714" enable-background="new 0 0 714 714" xml:space="preserve">
<path fill="#D1E7FA" d="M478.377,502.432c-1.249,0-2.509-0.004-3.773-0.017c-12.58-0.114-22.687-10.407-22.57-22.987
	c0.114-12.509,10.292-22.575,22.774-22.575l0.214,0.003c29.574,0.314,54.239-2.996,75.479-9.983
	c24.538-8.071,44.792-21.367,58.57-38.451c22.244-27.579,41.661-73.667,23.181-112.797c-6.699-14.188-17.364-23.966-31.695-29.064
	c-18-6.407-40.339-4.692-59.754,4.587c-11.347,5.421-24.95,0.624-30.377-10.731c-5.425-11.352-0.621-24.952,10.731-30.377
	c30.562-14.607,65.069-16.938,94.674-6.405c25.8,9.179,45.725,27.344,57.62,52.534c27.481,58.192,1.6,123.023-28.916,160.857
	c-19.306,23.934-46.899,42.306-79.798,53.128C539.644,498.408,511.359,502.432,478.377,502.432z"/>
<path fill="#D1E7FA" d="M598.869,109.863c-24.47,120.945-53.069,251.841-88.935,369.79c-10.616,34.921-17.15,71.883-35.12,104.041
	c-20.083,35.934-55.953,54.246-95.489,62.114c-68.935,13.717-165.12,7.659-220.289-38.526
	c-42.936-35.944-52.312-89.33-65.535-141.778c-28.1-111.461-47.203-241.983-65.045-355.641H598.869z"/>
<path fill="#91654C" d="M560.974,134.045c-21.22,110.16-46.019,229.386-77.118,336.815c-9.208,31.807-14.872,65.474-30.455,94.765
	c-17.415,32.731-48.519,49.41-82.802,56.575c-59.773,12.497-143.179,6.977-191.018-35.091
	c-37.23-32.738-45.359-81.362-56.825-129.135C98.387,356.452,81.825,237.57,66.354,134.045H560.974z"/>
<path fill="#D19B70" d="M193.847,311.171c37.788-5.24,72.694-0.889,109.825,6.183c74.35,14.158,155.593,30.862,222.221-12.877
	c12.828-57.335,24.409-115.028,35.081-170.431H66.354c9.238,61.822,18.882,129.108,30.329,194.918
	C129.25,324.186,161.155,315.704,193.847,311.171z"/>
<path fill="#F0D3C2" d="M122.826,226.574c21.83,6.1,43.384,12.779,66.059,14.933c45.661,4.334,92.155-1.622,137.164-9.057
	c40.102-6.622,79.603-14.485,120.48-10.629c31.683,2.989,62.124,13.198,93.447,17.386c7.403-35.513,14.375-70.779,20.999-105.162
	H66.354c3.783,25.327,7.637,51.581,11.652,78.268C91.742,219.697,108.049,222.445,122.826,226.574z"/>
<path fill="#BCDDF4" d="M532.07,109.863c-9.27,57.517-22.885,125.049-37.53,181.43c-18.29,70.409-43.311,140.892-85.669,200.894
	c-67.841,96.1-202.141,121.425-295.617,45.233c9.488,26.394,22.813,50.636,45.781,69.863
	c55.169,46.185,151.354,52.244,220.289,38.526c39.535-7.868,75.406-26.18,95.489-62.114c17.971-32.158,24.504-69.123,35.12-104.041
	c35.866-117.949,64.465-248.845,88.935-369.79C598.869,109.863,576.053,109.863,532.07,109.863z"/>
<path fill="#8A5B47" d="M481.074,319.358c-16.353,57.844-36.892,115.264-71.574,164.389
	c-57.067,80.838-161.615,117.573-249.023,81.864c5.386,7.708,11.637,14.936,19.104,21.498
	c47.839,42.068,131.245,47.588,191.018,35.091c34.283-7.165,65.386-23.844,82.802-56.575c15.583-29.291,21.247-62.957,30.455-94.765
	c15.742-54.38,29.844-111.788,42.709-169.505C511.6,307.872,496.528,314.121,481.074,319.358z"/>
<path fill="#CE9167" d="M503.354,230.554c-3.678,16.867-7.557,33.693-11.9,50.409c-3.837,14.775-7.827,29.63-12.095,44.443
	c16.078-4.441,31.671-11.174,46.534-20.931c5.094-22.762,9.841-45.445,14.485-68.058
	C536.392,235.719,511.398,233.156,503.354,230.554z"/>
<path fill="#EBC4B2" d="M522.523,134.045c-5.642,32.896-12.02,65.654-19.354,98.202c12.219,2.714,24.443,5.308,36.806,6.96
	c7.403-35.513,14.375-70.779,20.999-105.162C560.971,134.045,546.499,134.045,522.523,134.045z"/>
<path fill="#E7F2FC" d="M598.842,112.628c0,9.379-14.071,18.122-38.682,25.666c-5.535,1.762-11.598,3.384-18.192,4.936
	c-48.811,11.632-124.647,19.459-210.903,20.375c-5.593,0.07-11.186,0.07-16.841,0.07c-7.065,0-14.071,0-21.018-0.07
	c-89.496-1.199-167.627-9.659-215.378-22.21c-6.358-1.693-12.188-3.384-17.428-5.218c-20.431-7.12-31.971-15.089-31.971-23.549
	c0-28.275,127.708-51.118,285.208-51.118C471.196,61.509,598.842,84.352,598.842,112.628z"/>
<path fill="#B6D9F0" d="M568.565,112.622c0,5.591-10.745,10.745-29.705,15.342c-1.576,0.436-3.208,0.809-4.897,1.181
	c-4.95,1.118-10.353,2.173-16.26,3.167c-43.603,7.454-111.401,12.485-188.482,13.106h-33.871
	c-79.949-0.807-149.771-6.212-192.475-14.288c-5.683-1.116-10.916-2.173-15.586-3.352c-2.307-0.56-4.502-1.181-6.526-1.739
	c-14.178-4.163-22.056-8.697-22.056-13.418c0-18.2,114.158-32.857,254.93-32.857C454.463,79.765,568.565,94.423,568.565,112.622z"/>
<path fill="#F0D3C2" d="M538.86,127.965c-1.576,0.436-3.208,0.809-4.897,1.181c-4.95,1.118-10.353,2.173-16.26,3.167
	c-43.603,7.454-111.401,12.485-188.482,13.106h-33.871c-79.949-0.807-149.771-6.212-192.475-14.288
	c-5.683-1.116-10.916-2.173-15.586-3.352c-2.307-0.56-4.502-1.181-6.526-1.739c19.218-9.393,45.179-13.094,66.334-16.512
	c56.602-8.943,121.929-11.705,179.035-10.402c59.696,1.552,103.157,2.19,161.182,14.234
	C502.234,116.46,524.509,122.182,538.86,127.965z"/>
<path fill="#EBC4B2" d="M487.315,113.361c-12.76-2.648-24.789-4.719-36.467-6.395c8.197,28.702-80.928,30.716-96.853,31.031
	c-49.113,0.969-94.326-1.075-143.381-2.278c-37.123-0.909-79.846-4.146-121.018-13.413c-3.052,1.145-6.029,2.363-8.833,3.735
	c2.025,0.558,4.219,1.179,6.526,1.739c4.67,1.179,9.903,2.234,15.586,3.352c42.704,8.075,112.526,13.478,192.475,14.288h33.871
	c77.081-0.622,144.879-5.652,188.482-13.106c5.908-0.994,11.311-2.049,16.26-3.169c1.688-0.373,3.321-0.743,4.894-1.179
	C524.509,122.182,502.234,116.46,487.315,113.361z"/>
<path fill="#9D6C4C" d="M139.996,387.913c-2.98,0-5.542-2.246-5.871-5.279l-0.762-7.043c-0.349-3.245,1.998-6.161,5.244-6.514
	c3.233-0.341,6.161,1.998,6.512,5.245l0.762,7.043c0.351,3.245-1.997,6.161-5.244,6.514L139.996,387.913z"/>
<path fill="#9D6C4C" d="M158.232,374.51c-3.262,0-5.91-2.648-5.91-5.91v-4.231c0-3.264,2.648-5.912,5.91-5.912
	c3.264,0,5.912,2.648,5.912,5.912v4.231C164.144,371.862,161.496,374.51,158.232,374.51z"/>
<path fill="#9D6C4C" d="M499.737,350.681c-0.502,0-1.009-0.063-1.513-0.197c-3.157-0.833-5.04-4.068-4.207-7.226l2.799-10.58
	c0.833-3.157,4.083-5.033,7.226-4.202c3.157,0.835,5.038,4.068,4.202,7.225l-2.797,10.575
	C504.748,348.93,502.355,350.681,499.737,350.681z"/>
<path fill="#F4E1D1" d="M126.266,124.106c-1.011,0-1.917-0.7-2.141-1.727c-0.256-1.184,0.497-2.353,1.678-2.609
	c35.269-7.634,71.4-12.667,107.396-14.96c1.213-0.056,2.249,0.841,2.329,2.049c0.075,1.208-0.841,2.251-2.049,2.328
	c-35.778,2.278-71.693,7.282-106.745,14.87L126.266,124.106z"/>
<path fill="#F4E1D1" d="M253.036,107.407c-1.094,0-2.039-0.814-2.176-1.924c-0.149-1.201,0.706-2.295,1.908-2.444
	c7.719-0.95,15.564-1.096,23.313-0.429c1.208,0.105,2.1,1.167,1.998,2.373c-0.105,1.206-1.181,2.134-2.37,1.998
	c-7.454-0.636-14.987-0.502-22.402,0.409L253.036,107.407z"/>
<path fill="#F4E1D1" d="M358.723,130.506c-8.614,0-17.223-0.405-25.766-1.213c-1.206-0.114-2.09-1.181-1.976-2.387
	c0.114-1.206,1.154-2.09,2.39-1.976c16.953,1.603,34.173,1.586,51.181-0.041l1.545-0.149c14.463-1.381,30.85-2.945,43.435-10.685
	c1.026-0.636,2.38-0.309,3.016,0.721c0.634,1.033,0.312,2.382-0.721,3.016c-13.449,8.273-30.378,9.885-45.311,11.313l-1.547,0.146
	C376.256,130.089,367.486,130.506,358.723,130.506z"/>
<path fill="#9D6C4C" d="M204.158,465.923l-0.762-0.049c-3.238-0.419-5.525-3.381-5.109-6.619c0.188-1.459,0.029-2.962-0.46-4.349
	c-1.084-3.077,0.529-6.453,3.608-7.542c3.072-1.072,6.455,0.529,7.542,3.608c1.101,3.121,1.462,6.507,1.038,9.793
	C209.63,463.747,207.089,465.923,204.158,465.923z"/>
<path fill="#9D6C4C" d="M224.4,445.521c-2.692,0-5.125-1.852-5.754-4.587c-0.843-3.645-1.152-7.381-0.918-11.109
	c0.202-3.259,3.038-5.747,6.266-5.535c3.259,0.202,5.734,3.009,5.532,6.266c-0.161,2.589,0.053,5.189,0.638,7.725
	c0.733,3.181-1.25,6.353-4.431,7.086L224.4,445.521z"/>
<path fill="#9D6C4C" d="M226,483.182c-2.992,0-5.556-2.258-5.873-5.298c-0.453-4.333-0.19-8.682,0.774-12.926
	c0.726-3.184,3.886-5.182,7.079-4.451c3.181,0.723,5.174,3.893,4.451,7.077c-0.68,2.979-0.863,6.031-0.546,9.074
	c0.339,3.245-2.02,6.154-5.267,6.492L226,483.182z"/>
<path fill="#9D6C4C" d="M307.703,530.271c-3.262,0-5.91-2.646-5.91-5.91v-10.202c0-3.264,2.648-5.91,5.91-5.91
	c3.264,0,5.912,2.646,5.912,5.91v10.202C313.615,527.626,310.967,530.271,307.703,530.271z"/>
<path fill="#D9A97F" d="M408.141,262.674c-2.986,0-5.552-2.256-5.873-5.291c-0.412-3.898-0.112-7.788,0.891-11.564
	c0.838-3.157,4.076-5.031,7.23-4.195c3.155,0.838,5.033,4.076,4.195,7.23c-0.621,2.343-0.816,4.862-0.56,7.286
	c0.346,3.245-2.01,6.153-5.257,6.5L408.141,262.674z"/>
<path fill="#D9A97F" d="M194.636,271.329c-2.955,0-5.508-2.207-5.864-5.214l-0.748-6.282c-0.387-3.242,1.927-6.183,5.169-6.568
	c3.242-0.383,6.185,1.927,6.57,5.169l0.748,6.283c0.388,3.242-1.929,6.182-5.172,6.568L194.636,271.329z"/>
<path fill="#D9A97F" d="M212.638,280.751c-2.558,0-4.914-1.673-5.669-4.251c-1.05-3.579-1.338-7.423-0.833-11.111
	c0.441-3.235,3.401-5.486,6.653-5.059c3.237,0.441,5.5,3.42,5.059,6.653c-0.28,2.059-0.119,4.197,0.465,6.192
	c0.918,3.133-0.877,6.416-4.01,7.335C213.749,280.673,213.189,280.751,212.638,280.751z"/>
<path fill="#F4E1D1" d="M102.193,184.98c-2.421,0-4.694-1.498-5.564-3.907c-1.33-3.698-1.981-7.564-1.925-11.496
	c0.041-3.266,2.821-5.9,5.988-5.832c3.264,0.044,5.878,2.726,5.832,5.99c-0.032,2.507,0.38,4.972,1.23,7.33
	c1.106,3.072-0.487,6.458-3.559,7.564C103.533,184.869,102.855,184.98,102.193,184.98z"/>
<path fill="#FFFFFF" d="M142.134,460.661c-3.323-12.514-6.348-25.101-8.96-37.834c-14.84-72.351-30.984-147.99-36.76-218.55
	c-0.224-2.753-0.236-5.618,0.809-8.176c4.302-10.516,32.98-5.225,41.474-3.863c7.284,1.152,2.723,74.592,2.592,81.542
	c-1.452,77.296,11.749,152.338,19.381,228.881c0.602,6.046-3.079,4.066-5.359,0.721c-2.3-3.374-3.235-7.963-4.395-11.82
	C147.83,481.285,144.88,471,142.134,460.661z"/>
</svg>
