<?xml version="1.0" encoding="utf-8"?>
<!-- Generator: Adobe Illustrator 22.0.0, SVG Export Plug-In . SVG Version: 6.00 Build 0)  -->
<svg version="1.1" id="Capa_1" xmlns="http://www.w3.org/2000/svg" xmlns:xlink="http://www.w3.org/1999/xlink" x="0px" y="0px"
	 viewBox="0 0 786 858" enable-background="new 0 0 786 858" xml:space="preserve">
<path fill="#DBAE78" d="M538.08,808.393c26.495-0.044,57.396,0.673,73.683-8.378c10.482-5.82,11.681-13.742,11.976-21.123
	c3.781-94.521,3.535-478.518,9.476-571.853c0.526-8.268,0.494-16.982-8.38-24.317c-18.287-15.118-81.167-14.46-124.982-15.118
	c-72.879-1.092-240.787-1.021-308.716-0.975c-67.523,0.046-116.889-6.234-118.165,24.027
	c-4.176,99.084-13.501,514.158-13.501,585.205c0,37.398,34.936,31.43,125.052,32.222C241.98,808.585,469.766,808.512,538.08,808.393
	z"/>
<path fill="#D8A36B" d="M624.835,182.722c-12.161-10.051-44.041-13.118-76.918-14.243c6.685,79.205,3.683,159.249-7.878,237.855
	c-14.97,101.786-56.399,228.865-169.281,257.196c-27.276,6.845-54.049,5.439-81.603,1.564c-20.426-2.872-48.555-9.922-65.44,5.637
	c-9.43,8.692-14.521,19.347-25.618,26.626c-37.929,24.884-92.645,28.76-137.956,19.956c-0.424,26.613-0.67,47.081-0.67,58.548
	c0,37.398,34.936,31.43,125.052,32.222c57.457,0.502,285.242,0.428,353.556,0.309c26.495-0.044,57.396,0.673,73.683-8.378
	c10.482-5.82,11.681-13.742,11.976-21.123c3.781-94.521,3.535-478.518,9.476-571.853
	C633.742,198.771,633.71,190.057,624.835,182.722z"/>
<path fill="#A07152" d="M551.948,246.591c-0.029-7.306,0.429-15.825-5.362-20.317c-3.727-2.889-8.797-3.22-13.52-3.301
	c-60.497-1.043-306.263-0.974-366-2.611c-5.291-0.146-10.87-0.137-15.564,2.309c-9.674,5.042-9.255,22.377-9.674,34.458
	c-0.699,20.092-0.655,66.383-0.626,85.111c0.029,18.616-3.988,32.226,15.379,32.577c63.415,1.152,329.073,3.722,374.545,3.722
	c23.934,0,20.117-9.629,20.621-34.475C552.073,328.223,552.024,265.424,551.948,246.591z"/>
<path fill="#94694F" d="M551.924,325.151c0.122-25.216,0.081-64.368,0.025-78.56c-0.029-7.306,0.429-15.825-5.362-20.317
	c-3.727-2.889-8.797-3.22-13.52-3.301c-60.497-1.043-306.263-0.974-366-2.611c-5.291-0.146-10.87-0.137-15.564,2.309
	c-9.674,5.042-9.255,22.377-9.674,34.458c-0.348,10.027-0.475,19.449-0.548,35.844C279.866,299.426,421.518,316.598,551.924,325.151
	z"/>
<path fill="#D98A7A" d="M667.529,63.346c-0.046-12.711,0.67-27.537-8.378-35.352c-5.822-5.028-13.744-5.606-21.126-5.747
	c-94.521-1.813-478.515-1.695-571.853-4.545c-8.268-0.251-16.982-0.237-24.317,4.022c-15.115,8.772-14.46,38.943-15.115,59.964
	c-1.092,34.965-1.021,115.525-0.977,148.114c0.046,32.397-6.232,56.08,24.029,56.694c99.081,2.003,514.157,6.478,585.202,6.478
	c37.398,0,31.432-16.763,32.222-59.998C667.722,205.409,667.646,96.121,667.529,63.346z"/>
<path fill="#E7BFBB" d="M667.5,56.062c-0.105-10.721-0.989-21.712-8.349-28.068c-5.822-5.028-13.744-5.606-21.126-5.747
	c-94.521-1.813-478.515-1.695-571.853-4.545c-8.268-0.251-16.982-0.237-24.317,4.022c-9.505,5.518-12.772,19.496-14.051,34.339
	H667.5z"/>
<path fill="#D0D1DB" d="M426.704,179.339c0,39.798-32.263,72.061-72.061,72.061c-39.8,0-72.063-32.263-72.063-72.061
	c0-39.798,32.263-72.061,72.063-72.061C394.441,107.278,426.704,139.541,426.704,179.339z"/>
<circle fill="#B9B9C4" cx="354.643" cy="179.339" r="51.62"/>
<rect x="72.31" y="124.272" fill="#E7BFBB" width="117.069" height="30.694"/>
<rect x="500.014" y="92.447" fill="#9BCAD0" width="109.199" height="56.027"/>
<rect x="72.31" y="183.753" fill="#E7BFBB" width="117.069" height="30.697"/>
<path fill="#CF6663" d="M532.894,236.001h-28.412c-5.328,0-9.686-4.358-9.686-9.686v-2.18c0-5.328,4.358-9.686,9.686-9.686h28.412
	c5.328,0,9.688,4.358,9.688,9.686v2.18C542.582,231.643,538.221,236.001,532.894,236.001z"/>
<path fill="#CF6663" d="M599.525,236.001h-28.409c-5.33,0-9.688-4.358-9.688-9.686v-2.18c0-5.328,4.358-9.686,9.688-9.686h28.409
	c5.327,0,9.688,4.358,9.688,9.686v2.18C609.213,231.643,604.852,236.001,599.525,236.001z"/>
<path fill="#CF6663" d="M532.894,193.916h-28.412c-5.328,0-9.686-4.358-9.686-9.688v-2.178c0-5.328,4.358-9.688,9.686-9.688h28.412
	c5.328,0,9.688,4.36,9.688,9.688v2.178C542.582,189.558,538.221,193.916,532.894,193.916z"/>
<path fill="#CF6663" d="M599.525,193.916h-28.409c-5.33,0-9.688-4.358-9.688-9.688v-2.178c0-5.328,4.358-9.688,9.688-9.688h28.409
	c5.327,0,9.688,4.36,9.688,9.688v2.178C609.213,189.558,604.852,193.916,599.525,193.916z"/>
<path fill="#D0D1DB" d="M436.044,172.238c-1.255,0-2.343-0.928-2.509-2.202c-3.252-24.736-13.947-44.178-30.923-56.229
	c-17.145-12.166-39.644-17.406-60.192-14.022c-35.133,5.791-62.007,32.531-68.465,68.122c-0.251,1.374-1.554,2.299-2.948,2.042
	c-1.376-0.251-2.29-1.569-2.042-2.948c6.848-37.725,35.357-66.073,72.631-72.214c21.827-3.596,45.737,1.963,63.949,14.889
	c18.158,12.887,29.573,33.53,33.013,59.698c0.183,1.389-0.794,2.661-2.18,2.843L436.044,172.238z"/>
<path fill="#D0D1DB" d="M271.257,162.618l-0.957-0.19l-8.002-3.264c-1.296-0.529-1.917-2.008-1.388-3.303
	c0.528-1.299,2.005-1.927,3.303-1.389l8.002,3.264c1.296,0.529,1.917,2.008,1.389,3.303
	C273.201,162.021,272.256,162.618,271.257,162.618z"/>
<path fill="#D0D1DB" d="M279.864,142.44c-0.568,0-1.137-0.19-1.61-0.58l-7.639-6.305c-1.079-0.889-1.233-2.487-0.341-3.566
	c0.887-1.079,2.482-1.233,3.567-0.341l7.639,6.305c1.079,0.891,1.233,2.487,0.341,3.566
	C281.318,142.126,280.595,142.44,279.864,142.44z"/>
<path fill="#D0D1DB" d="M294.953,123.207c-0.541,0-1.087-0.173-1.547-0.528c-2.656-2.051-4.926-4.682-6.566-7.605
	c-0.685-1.221-0.251-2.765,0.97-3.449c1.225-0.687,2.77-0.249,3.449,0.969c1.311,2.336,3.123,4.436,5.245,6.076
	c1.108,0.855,1.31,2.446,0.456,3.554C296.461,122.869,295.71,123.207,294.953,123.207z"/>
<path fill="#D0D1DB" d="M311.886,109.841c-0.909,0-1.786-0.487-2.242-1.345c-1.722-3.247-3.184-6.667-4.341-10.161
	c-0.441-1.328,0.278-2.762,1.608-3.201c1.323-0.438,2.762,0.277,3.201,1.607c1.069,3.225,2.419,6.381,4.01,9.376
	c0.655,1.238,0.185,2.772-1.05,3.428L311.886,109.841z"/>
<path fill="#D0D1DB" d="M333.342,100.011c-0.979,0-1.912-0.568-2.326-1.523c-1.374-3.162-2.205-6.507-2.467-9.939
	c-0.107-1.396,0.935-2.614,2.331-2.722c1.354-0.112,2.614,0.938,2.721,2.331c0.222,2.87,0.916,5.667,2.064,8.307
	c0.558,1.284-0.029,2.777-1.313,3.335L333.342,100.011z"/>
<path fill="#D0D1DB" d="M357.354,97.129l-0.399-0.032c-1.382-0.219-2.324-1.518-2.105-2.899l1.367-8.614
	c0.219-1.381,1.523-2.338,2.899-2.105c1.381,0.22,2.324,1.518,2.104,2.899l-1.367,8.614
	C359.657,96.24,358.579,97.129,357.354,97.129z"/>
<path fill="#D0D1DB" d="M380.334,101.261l-0.899-0.166c-1.308-0.497-1.966-1.961-1.471-3.269l3.025-7.978
	c0.497-1.311,1.956-1.966,3.269-1.471c1.308,0.497,1.966,1.961,1.471,3.269l-3.025,7.978
	C382.319,100.637,381.357,101.261,380.334,101.261z"/>
<path fill="#D0D1DB" d="M399.413,109.622l-1.225-0.317c-1.225-0.68-1.666-2.222-0.989-3.445c1.605-2.899,3.434-5.708,5.432-8.351
	c0.846-1.118,2.436-1.34,3.549-0.495c1.118,0.846,1.337,2.434,0.495,3.55c-1.856,2.455-3.552,5.062-5.043,7.751
	C401.169,109.151,400.304,109.622,399.413,109.622z"/>
<path fill="#D0D1DB" d="M414.363,121.646c-0.733,0-1.459-0.314-1.961-0.925c-0.887-1.082-0.731-2.677,0.351-3.566l7.157-5.876
	c1.087-0.889,2.682-0.726,3.566,0.351c0.89,1.082,0.731,2.68-0.351,3.567l-7.157,5.876
	C415.498,121.458,414.928,121.646,414.363,121.646z"/>
<path fill="#D0D1DB" d="M427.12,139.436c-0.811,0-1.605-0.388-2.097-1.106c-0.787-1.158-0.489-2.734,0.668-3.523l6.867-4.672
	c1.16-0.787,2.736-0.485,3.52,0.67c0.787,1.157,0.487,2.733-0.67,3.52l-6.862,4.673C428.11,139.295,427.612,139.436,427.12,139.436z
	"/>
<path fill="#D0D1DB" d="M433.34,156.281c-1.018,0-1.978-0.619-2.365-1.625c-0.502-1.308,0.151-2.772,1.457-3.274
	c3.008-1.155,6.115-2.136,9.23-2.921c1.364-0.336,2.733,0.48,3.077,1.839c0.341,1.36-0.482,2.736-1.84,3.077
	c-2.923,0.733-5.832,1.654-8.65,2.736L433.34,156.281z"/>
<path fill="#D0D1DB" d="M592.236,413.202c-51.836,0-158.214-0.329-170.874-0.524c-5.51-0.088-9.907-4.623-9.822-10.134
	c0.085-5.457,4.535-9.822,9.975-9.822h0.158c15.54,0.244,172.731,0.685,195.744,0.466h0.095c5.466,0,9.925,4.407,9.976,9.885
	c0.051,5.51-4.375,10.019-9.885,10.071C613.279,413.183,604.206,413.202,592.236,413.202z"/>
<path fill="#A07152" d="M320.088,484.781c1.021-0.008,2.214,0.092,2.843-1.179c0.405-0.821,0.451-1.934,0.461-2.974
	c0.146-13.303,0.137-67.347,0.366-80.482c0.021-1.164,0.019-2.39-0.322-3.422c-0.707-2.127-3.133-2.034-4.823-2.127
	c-2.811-0.154-9.289-0.144-11.91-0.139c-2.604,0.007-4.509-0.877-4.558,3.384c-0.161,13.944-0.521,72.363-0.521,82.36
	c0,5.264,1.347,4.424,4.826,4.536C308.663,484.807,317.452,484.798,320.088,484.781z"/>
<path fill="#A07152" d="M404.772,484.781c1.021-0.008,2.215,0.092,2.843-1.179c0.404-0.821,0.451-1.934,0.46-2.974
	c0.146-13.303,0.137-67.347,0.366-80.482c0.022-1.164,0.02-2.39-0.322-3.422c-0.706-2.127-3.133-2.034-4.823-2.127
	c-2.811-0.154-9.289-0.144-11.91-0.139c-2.604,0.007-4.509-0.877-4.558,3.384c-0.161,13.944-0.521,72.363-0.521,82.36
	c0,5.264,1.347,4.424,4.825,4.536C393.347,484.807,402.136,484.798,404.772,484.781z"/>
<path fill="#A07152" d="M233.186,358.449c0.139,1.542,0.268,2.999,0.358,4.258c1.961,27.284,13.335,46.153,33.294,56.965
	c21.695,11.754,51.123,17.905,74.287,19.32c37.91,2.314,102.804,0.176,125.732-49.05c3.179-6.821,5.844-19.469,7.785-31.493H233.186
	z"/>
<path fill="#D98A7A" d="M758.54,385.523c-0.014-2.823,0.212-2.943-2.638-4.677c-1.834-1.118-4.331-1.245-6.655-1.276
	c-29.776-0.405-150.74-0.378-180.143-1.011c-2.604-0.056-5.35-0.051-7.659,0.894c-4.762,1.949-4.555,5.474-4.762,10.144
	c-0.344,7.766-0.322,16.136-0.307,23.376c0.015,7.194-1.963,12.456,7.569,12.592c31.213,0.444,161.968,1.437,184.348,1.437
	c11.781,0,9.903-3.722,10.151-13.325C758.601,407.555,758.576,392.802,758.54,385.523z"/>
<path fill="#F5F6F7" d="M486.378,678.385c-7.396,0.003-14.931-1.116-22.278-3.437c-4.129-1.306-8.124-3.021-11.875-5.094
	c-4.931-2.726-6.719-8.931-3.993-13.857c2.725-4.931,8.925-6.714,13.856-3.993c2.575,1.423,5.32,2.602,8.159,3.496
	c15.861,5.006,38.477,3.174,50.648-12.704c8.755-11.427,12.804-30.65,3.06-43.773c-10.219-13.769-31.629-12.911-46.426-4.131
	c-4.84,2.865-11.101,1.276-13.973-3.567c-2.874-4.843-1.279-11.096,3.564-13.973c22.254-13.208,55.481-14.365,73.211,9.516
	c15.869,21.369,10.378,50.55-3.247,68.331C525.7,670.054,506.57,678.385,486.378,678.385z"/>
<path fill="#F5F6F7" d="M494.423,546.339c-1.006,14.843-4.823,32.008-8.122,47.218c-1.13,5.284-2.231,10.324-3.086,14.965
	l-0.122,0.551c-2.78,14.568-6.841,29.749-12.522,44.224c-2.078,5.345-4.368,10.568-6.933,15.669
	c-8.704,17.562-20.187,33.32-35.001,44.682c-8.553,6.628-18.263,11.759-29.198,14.935c-4.734,1.374-9.742,2.383-14.965,2.994
	c-38.514,4.429-80.234,0.58-112.485-19.486c-9.561-5.956-18.295-13.318-25.808-22.326c-5.834-6.84-10.904-14.66-15.181-23.486
	c-4.215-8.768-7.788-17.776-10.901-26.938c-1.986-5.834-3.788-11.759-5.437-17.715c-4.185-15.15-7.452-30.573-10.568-45.905
	c-0.673-3.206-1.313-6.383-1.954-9.588c-0.551-2.658-1.07-5.223-1.528-7.727c-0.855-4.278-1.559-8.278-2.078-12.066H494.423z"/>
<path fill="#EFF0F2" d="M459.978,546.339c0.156,49.035-16.833,100.677-52,134.411c-20.745,19.9-50.378,28.741-78.777,29.883
	c-29.42,1.186-55.162-7.289-81.123-18.689c7.077,8.017,15.14,14.682,23.912,20.146c32.251,20.065,73.97,23.912,112.485,19.486
	c5.223-0.611,10.231-1.62,14.965-2.994c10.935-3.176,20.646-8.307,29.198-14.935c14.814-11.362,26.297-27.12,35.001-44.682
	c2.565-5.101,4.855-10.324,6.933-15.669c5.681-14.475,9.742-29.656,12.522-44.224l0.122-0.551c0.855-4.641,1.956-9.681,3.086-14.965
	c3.299-15.211,7.116-32.375,8.122-47.218H459.978z"/>
<path fill="#FFFFFF" d="M494.411,547.762c0,4.826-7.301,9.325-20.066,13.208c-2.872,0.906-6.017,1.742-9.437,2.538
	c-25.32,5.988-64.657,10.015-109.4,10.487c-2.901,0.036-5.803,0.036-8.736,0.036c-3.664,0-7.298,0-10.904-0.036
	c-46.424-0.616-86.952-4.972-111.722-11.43c-3.298-0.87-6.322-1.742-9.04-2.685c-10.597-3.664-16.582-7.764-16.582-12.119
	c0-14.548,66.243-26.305,147.944-26.305C428.197,521.458,494.411,533.214,494.411,547.762z"/>
<path fill="#E3E2EA" d="M484.852,547.762c0,3.267-5.834,6.278-16.127,8.962c-0.855,0.253-1.742,0.472-2.658,0.69
	c-2.687,0.653-5.62,1.271-8.826,1.852c-23.671,4.353-60.473,7.293-102.314,7.656h-18.387c-43.401-0.472-81.303-3.63-104.482-8.346
	c-3.087-0.653-5.927-1.269-8.46-1.959c-1.252-0.329-2.444-0.689-3.545-1.018c-7.696-2.429-11.971-5.079-11.971-7.837
	c0-10.631,61.968-19.194,138.385-19.194C422.914,528.568,484.852,537.131,484.852,547.762z"/>
<path fill="#91654C" d="M468.726,556.724c-0.855,0.253-1.742,0.472-2.658,0.69c-2.687,0.653-5.62,1.271-8.826,1.852
	c-23.671,4.353-60.473,7.293-102.314,7.656h-18.387c-43.401-0.472-81.303-3.63-104.482-8.346c-3.087-0.653-5.927-1.269-8.46-1.959
	c-1.252-0.329-2.444-0.689-3.545-1.018c10.434-5.486,24.526-7.647,36.01-9.644c30.726-5.223,66.188-6.838,97.186-6.076
	c32.404,0.906,55.997,1.279,87.496,8.314C448.845,550.003,460.938,553.345,468.726,556.724z"/>
<path fill="#8A5D44" d="M440.745,548.193c-6.926-1.547-13.457-2.755-19.796-3.734c4.451,16.765-43.932,17.944-52.575,18.127
	c-26.66,0.565-51.203-0.629-77.832-1.33c-20.151-0.534-43.345-2.424-65.693-7.837c-1.659,0.67-3.274,1.381-4.796,2.18
	c1.101,0.326,2.292,0.689,3.545,1.016c2.533,0.692,5.374,1.308,8.46,1.961c23.182,4.716,61.081,7.873,104.482,8.346h18.387
	c41.841-0.363,78.643-3.303,102.314-7.656c3.206-0.582,6.139-1.199,8.826-1.852c0.915-0.217,1.802-0.436,2.658-0.69
	C460.938,553.345,448.845,550.003,440.745,548.193z"/>
<path fill="#FFFFFF" d="M446.312,587.46l-0.368-0.022c-1.674-0.2-2.87-1.72-2.67-3.396l0.651-5.452
	c0.199-1.678,1.703-2.889,3.395-2.67c1.674,0.2,2.87,1.72,2.67,3.396l-0.65,5.452C449.154,586.32,447.837,587.46,446.312,587.46z"/>
<path fill="#FFFFFF" d="M435.025,597.253l-0.46-0.034c-1.669-0.253-2.816-1.807-2.565-3.476c0.314-2.08,0.427-4.2,0.334-6.302
	c-0.075-1.686,1.23-3.113,2.914-3.187c1.698-0.07,3.113,1.23,3.186,2.914c0.112,2.497-0.019,5.016-0.392,7.486
	C437.812,596.166,436.509,597.253,435.025,597.253z"/>
<path fill="#FFFFFF" d="M226.59,616.342c-1.016,0-2.01-0.507-2.59-1.43c-1.193-1.9-1.554-4.237-0.986-6.409
	c0.424-1.634,2.092-2.629,3.725-2.185c1.632,0.424,2.611,2.092,2.185,3.725c-0.139,0.533-0.044,1.154,0.25,1.62
	c0.897,1.43,0.465,3.313-0.962,4.212C227.708,616.191,227.145,616.342,226.59,616.342z"/>
<path fill="#FFFFFF" d="M234.923,607.954l-0.263-0.012c-1.681-0.144-2.926-1.622-2.782-3.303l0.341-3.995
	c0.144-1.683,1.637-2.953,3.303-2.782c1.681,0.144,2.926,1.622,2.782,3.303l-0.341,3.995
	C237.827,606.753,236.492,607.954,234.923,607.954z"/>
<path fill="#FFFFFF" d="M225.569,599.611c-1.476,0-2.775-1.075-3.011-2.577l-0.75-4.709c-0.265-1.666,0.87-3.232,2.534-3.498
	c1.661-0.282,3.232,0.865,3.498,2.534l0.75,4.719c0.265,1.666-0.872,3.23-2.538,3.493L225.569,599.611z"/>
<path fill="#FFFFFF" d="M278.872,687.431c-1.537,0-2.86-1.159-3.031-2.724l-0.395-3.625c-0.183-1.678,1.028-3.183,2.704-3.367
	c1.649-0.148,3.184,1.026,3.367,2.704l0.395,3.625c0.183,1.678-1.028,3.184-2.704,3.367L278.872,687.431z"/>
<path fill="#FFFFFF" d="M288.334,680.534c-1.686,0-3.055-1.369-3.055-3.055v-2.178c0-1.686,1.369-3.055,3.055-3.055
	c1.685,0,3.055,1.37,3.055,3.055v2.178C291.389,679.165,290.019,680.534,288.334,680.534z"/>
<path fill="#FFFFFF" d="M420.141,658.671l-0.792-0.105c-1.63-0.434-2.597-2.11-2.161-3.74l1.452-5.442
	c0.434-1.625,2.105-2.592,3.739-2.161c1.63,0.433,2.597,2.11,2.161,3.739l-1.452,5.443
	C422.726,657.769,421.491,658.671,420.141,658.671z"/>
<path fill="#9B7055" d="M249.274,553.674c-0.524,0-0.994-0.363-1.109-0.894c-0.132-0.611,0.258-1.215,0.87-1.347
	c18.29-3.929,37.033-6.519,55.707-7.698c0.717-0.037,1.164,0.436,1.201,1.06c0.039,0.624-0.434,1.162-1.06,1.201
	c-18.56,1.172-37.191,3.747-55.371,7.654L249.274,553.674z"/>
<path fill="#9B7055" d="M315.03,545.08c-0.563,0-1.052-0.422-1.123-0.996c-0.075-0.621,0.368-1.186,0.989-1.262
	c4.002-0.485,8.071-0.561,12.087-0.219c0.624,0.051,1.087,0.602,1.033,1.223c-0.051,0.626-0.646,1.116-1.223,1.033
	c-3.864-0.324-7.773-0.256-11.624,0.214L315.03,545.08z"/>
<path fill="#9B7055" d="M365.286,560.931c-2.319,0-4.638-0.058-6.955-0.175c-0.626-0.029-1.106-0.563-1.077-1.186
	c0.032-0.624,0.463-1.138,1.189-1.074c12.042,0.594,24.12-0.388,35.898-2.935c4.151-0.896,8.509-2.042,12.249-4.324
	c0.526-0.324,1.228-0.161,1.556,0.378c0.326,0.533,0.158,1.23-0.378,1.557c-4.027,2.458-8.604,3.666-12.95,4.606
	C385.113,559.874,375.208,560.931,365.286,560.931z"/>
<path fill="#D98A7A" d="M648.84,745.874c-9.942-14.119-17.337-14.555-33.656-14.741c-21.323-0.241-42.648-0.397-63.973-0.504
	c-42.651-0.212-85.303-0.229-127.954-0.365c-87.703-0.283-175.41-0.48-263.113-1.084c-19.267-0.134-38.533-0.285-57.8-0.516
	c-15.566-0.188-45.047-5.535-56.499,5.729c-6.47,6.363-28.202,60.501-33.484,76.134c-1.013,3.006-2.029,6.302-0.931,9.277
	c0.656,1.776,2.005,3.216,3.498,4.378c5.664,4.407,13.257,5.225,20.421,5.656c29.265,1.756,58.736,0.331,88.034,0.543
	c38.945,0.283,77.888,0.614,116.83,0.95c87.527,0.757,175.055,1.578,262.582,2.314c28.326,0.237,56.658,0.076,84.982-0.373
	c14.375-0.227,28.745,0.446,43.118,0.319c9.701-0.085,31.352,2.356,38.638-4.806C681.103,817.401,651.171,749.184,648.84,745.874z"
	/>
<path fill="#D47B6E" d="M648.84,745.874c-9.401-13.35-16.536-14.468-31.082-14.707c14.719,32.989-7.598,62.709-41.227,74.813
	c-50.307,18.107-106.407,17.574-158.57,14.453c-64.3-3.846-128.879-3.486-193.255-6.524c-70.855-3.343-141.724-6.339-212.62-2.514
	c-0.902,2.767-1.652,5.712-0.656,8.406c0.656,1.776,2.005,3.216,3.498,4.378c5.664,4.407,13.257,5.225,20.421,5.656
	c29.265,1.756,58.736,0.331,88.034,0.543c38.945,0.283,77.888,0.614,116.83,0.95c87.527,0.757,175.055,1.578,262.582,2.314
	c28.326,0.237,56.658,0.076,84.982-0.373c14.375-0.227,28.745,0.443,43.118,0.319c9.701-0.085,31.352,2.356,38.638-4.806
	C681.103,817.401,651.171,749.184,648.84,745.874z"/>
<path fill="#FFFFFF" d="M82.132,618.376c0.39,4.395,0.843,8.799,1.376,13.218c0.183,1.506,1.121,3.518,2.545,2.996
	c1.104-2.767,1.572-5.739,2.032-8.684c4.226-27.05,18.497-161.099,22.038-201.106c0.909-10.241,1.815-20.485,2.722-30.726
	c0.57-6.431,4.212-17.973,1.715-24.022c-1.362-3.301-4.217-3.07-7.218-3.157c-7.671-0.222-22.741-4.193-23.72,5.532
	c-3.654,36.278-3.591,73.983-3.786,110.49c-0.131,26.11-0.124,52.219,0.049,78.329C80.012,580.464,80.451,599.35,82.132,618.376z"/>
<path fill="#FFFFFF" d="M43.978,220.632c1.516,1.61,4.18,0.762,5.455-1.099c1.272-1.861,1.528-4.336,1.737-6.674
	c3.991-44.565,7.482-91.976,8.302-134.967c0.01-0.572-0.039-1.201-0.387-1.617c-0.327-0.392-0.843-0.482-1.318-0.538
	c-3.22-0.387-6.477-0.363-9.693,0.068c-0.74,0.1-1.525,0.244-2.092,0.794c-0.753,0.731-0.911,1.964-0.996,3.084
	C41.494,126.274,43.932,173.909,43.978,220.632z"/>
<path fill="#A87856" d="M164.829,334.997c-2.154,0-4.141-1.408-4.782-3.579c-1.118-3.786-1.467-7.856-1.011-11.776
	c0.319-2.736,2.816-4.707,5.53-4.38c2.738,0.317,4.699,2.794,4.38,5.53c-0.3,2.597-0.068,5.296,0.67,7.8
	c0.779,2.643-0.731,5.418-3.372,6.197C165.771,334.929,165.296,334.997,164.829,334.997z"/>
<path fill="#A87856" d="M187.089,349.804c-2.755,0-4.989-2.234-4.989-4.989v-10.076c0-2.755,2.234-4.989,4.989-4.989
	c2.755,0,4.989,2.234,4.989,4.989v10.076C192.078,347.57,189.844,349.804,187.089,349.804z"/>
<path fill="#A87856" d="M431.313,407.891c-2.487,0-4.64-1.858-4.945-4.392c-0.341-2.833-0.095-5.783,0.714-8.531
	c0.78-2.643,3.566-4.139,6.195-3.379c2.646,0.779,4.156,3.552,3.379,6.195c-0.431,1.459-0.562,3.023-0.382,4.521
	c0.331,2.736-1.62,5.22-4.356,5.549L431.313,407.891z"/>
<path fill="#A87856" d="M444.341,398.411c-2.543,0-4.716-1.934-4.963-4.519c-0.265-2.816-0.012-5.625,0.758-8.348
	c0.75-2.648,3.51-4.183,6.159-3.445c2.65,0.75,4.192,3.506,3.444,6.158c-0.426,1.51-0.575,3.133-0.426,4.694
	c0.26,2.743-1.754,5.177-4.497,5.438L444.341,398.411z"/>
<path fill="#DD9A88" d="M641.732,174.347c-2.755,0-4.989-2.234-4.989-4.989v-11.854c0-2.755,2.234-4.989,4.989-4.989
	c2.755,0,4.989,2.234,4.989,4.989v11.854C646.721,172.114,644.487,174.347,641.732,174.347z"/>
<path fill="#DD9A88" d="M654.774,147.378c-2.755,0-4.989-2.234-4.989-4.989v-8.892c0-2.755,2.234-4.989,4.989-4.989
	c2.755,0,4.989,2.234,4.989,4.989v8.892C659.763,145.144,657.529,147.378,654.774,147.378z"/>
<path fill="#DD9A88" d="M455.627,97.582c-2.385,0-4.492-1.713-4.911-4.141l-1.069-6.192c-0.468-2.716,1.352-5.296,4.068-5.764
	c2.728-0.501,5.296,1.355,5.764,4.069l1.069,6.192c0.468,2.716-1.352,5.296-4.068,5.764L455.627,97.582z"/>
<path fill="#DD9A88" d="M471.688,110.93l-0.368-0.012c-2.748-0.202-4.814-2.592-4.614-5.34l0.967-13.33
	c0.2-2.748,2.595-4.795,5.338-4.616c2.747,0.2,4.813,2.589,4.616,5.337l-0.967,13.335
	C476.467,108.927,474.278,110.93,471.688,110.93z"/>
<path fill="#DD9A88" d="M458.417,134.028c-2.555,0-4.734-1.951-4.965-4.546l-0.952-10.665c-0.243-2.745,1.784-5.169,4.527-5.413
	c2.796-0.251,5.169,1.783,5.413,4.526l0.952,10.665c0.244,2.745-1.783,5.169-4.526,5.413L458.417,134.028z"/>
<path fill="#DD9A88" d="M446.55,262.988c-2.453,0-4.592-1.81-4.935-4.307l-1.479-10.711c-0.375-2.731,1.532-5.247,4.261-5.625
	c2.726-0.37,5.245,1.532,5.625,4.261l1.479,10.711c0.375,2.731-1.532,5.247-4.261,5.625L446.55,262.988z"/>
<path fill="#DD9A88" d="M209.318,253.185c-2.755,0-4.989-2.234-4.989-4.989v-8.892c0-2.755,2.234-4.989,4.989-4.989
	c2.755,0,4.989,2.234,4.989,4.989v8.892C214.307,250.951,212.073,253.185,209.318,253.185z"/>
<path fill="#DD9A88" d="M225.321,262.966c-2.756,0-4.989-2.234-4.989-4.989v-8.002c0-2.755,2.234-4.989,4.989-4.989
	c2.755,0,4.989,2.234,4.989,4.989v8.002C230.31,260.732,228.076,262.966,225.321,262.966z"/>
<path fill="#DD9A88" d="M89.496,768.266c-2.511,0-4.675-1.893-4.953-4.448l-1.162-10.672c-0.297-2.741,1.681-5.201,4.419-5.501
	c2.731-0.292,5.201,1.676,5.501,4.419l1.162,10.672c0.297,2.741-1.681,5.203-4.419,5.501L89.496,768.266z"/>
<path fill="#DD9A88" d="M109.506,775.365c-1.666,0-3.296-0.833-4.241-2.353c-2.509-4.034-2.509-9.454,0.002-13.491
	c1.454-2.341,4.526-3.06,6.872-1.601c2.339,1.457,3.055,4.534,1.601,6.872c-0.524,0.84-0.524,2.109-0.003,2.948
	c1.454,2.338,0.738,5.415-1.6,6.872C111.316,775.121,110.405,775.365,109.506,775.365z"/>
<path fill="#DD9A88" d="M129.591,765.92c-2.755,0-4.989-2.234-4.989-4.989v-13.042c0-2.755,2.234-4.989,4.989-4.989
	c2.755,0,4.989,2.234,4.989,4.989v13.042C134.58,763.686,132.346,765.92,129.591,765.92z"/>
</svg>
