<?xml version="1.0" encoding="utf-8"?>
<!-- Generator: Adobe Illustrator 22.0.0, SVG Export Plug-In . SVG Version: 6.00 Build 0)  -->
<svg version="1.1" id="Capa_1" xmlns="http://www.w3.org/2000/svg" xmlns:xlink="http://www.w3.org/1999/xlink" x="0px" y="0px"
	 viewBox="0 0 786 858" enable-background="new 0 0 786 858" xml:space="preserve">
<path fill="#91654C" d="M674.577,42.837c-0.036-6.823,0.685-14.785-8.55-18.979c-5.944-2.699-14.032-2.967-21.564-3.084
	c-161.851-2.524-330.799-1.824-492.927-2.441c-8.443-0.034-17.335-0.129-24.821,2.159c-15.43,4.709-14.404,14.336-15.074,25.622
	c-1.114,18.772-0.733,20.003-0.687,37.501c0.049,17.391,3.077,26.012,27.603,25.993c161.408-0.132,409.181,3.481,502.815,3.481
	c30.378,0,31.885-9.009,32.889-32.212C674.579,73.49,674.621,51.039,674.577,42.837z"/>
<path fill="#886048" d="M259.203,81.882C210.22,84.649,159.747,83.3,111.83,94.969c2.012,9.79,8.304,14.653,26.726,14.638
	c161.408-0.132,409.181,3.478,502.813,3.478c30.38,0,31.888-9.006,32.892-32.209c0.151-3.506,0.239-10.41,0.285-17.564
	C580.468,72.835,310.838,78.966,259.203,81.882z"/>
<path fill="#DBAE78" d="M678.874,156.701c-12.772,95.569-73.693,443.497-96.049,548.423c-6.302,29.583-9.318,73.493-30.431,96.056
	c-8.745,9.345-20.962,14.626-33.167,18.487c-71.35,22.57-162.97,13.61-235.142-2.656c-25.164-5.671-51.924-14.297-66.87-35.386
	c-6.202-8.743-12.996-30.833-19.671-58.3c-42.472-174.772-89.378-555.061-90.974-566.64L678.874,156.701z"/>
<path fill="#D8A56B" d="M106.571,156.686c0.221,1.61,1.32,10.36,3.16,24.667c60.682,8.872,225.861,22.365,278.845,24.124
	c33.094,1.101,66.171,2.621,99.252,4.066c29.418,1.284,61.849-0.892,90.609,6.156c41.528,10.178,47.649,53.786,17.296,81.627
	c-20.329,18.646-55.174,23.822-81.517,26.319c-88.451,8.39-166.368,17.415-261.639,15.69c20.721,14.319,48.253,14.709,72.487,17.147
	c26.324,2.648,52.56,4.658,79.011,5.684c56.095,2.18,112.183,2.083,168.046,8.353c3.203,0.361,5.593,1.917,7.182,4.007
	c2.207,1.589,3.864,4.032,4.197,7.374c6.874,68.409-50.55,147.293-101.182,188.133c-69.403,55.983-165.118,44.331-248.421,45.013
	l0.117,0.451c0.341,0.743,0.587,1.508,0.784,2.278c42.39,10.227,203.023,32.658,231.81,39.294
	c51.961,11.98,65.949,37.437,52.658,77.166c-18.01,53.835-75.586,53.693-129.235,50.533c-54.75-3.222-134.487-4.706-184.193-30.767
	c3.9,12.694,7.742,22.496,11.379,27.622c14.945,21.089,41.705,29.715,66.87,35.386c72.175,16.266,163.793,25.225,235.142,2.656
	c12.205-3.861,24.421-9.142,33.167-18.487c21.113-22.563,24.129-66.472,30.431-96.056c22.356-104.926,83.276-452.854,96.049-548.423
	L106.571,156.686z"/>
<path fill="#F6ECBC" d="M615.895,615.74c17.286-79.013,37.64-203.184,47.467-291.393c-181.488,31.998-364.44,20.928-546.664-0.702
	c9.025,84.314,29.591,218.679,40.965,282.068C309.418,633.114,464.126,642.59,615.895,615.74z"/>
<path fill="#91654C" d="M713.39,115.295c-0.039-7.649,0.78-16.57-9.727-21.272c-6.762-3.025-15.963-3.325-24.534-3.456
	c-184.141-2.826-376.355-2.044-560.81-2.736c-9.605-0.036-19.72-0.141-28.239,2.419c-17.555,5.279-16.388,16.068-17.15,28.716
	c-1.267,21.038-0.833,22.417-0.78,42.025c0.054,19.493,3.498,29.154,31.403,29.132c183.634-0.149,465.529,3.898,572.058,3.898
	c34.56,0,36.278-10.093,37.418-36.098C713.393,149.646,713.439,124.486,713.39,115.295z"/>
<path fill="#A07152" d="M450.022,492.325c-2.149,17.746-0.516,37.564,8.531,53.724c21.194,37.861,68.675,28.962,94.416,3.518
	c29.364-29.026,51.432-84.212,39.425-126.543c-7.16-25.23-29.437-45.315-58.414-41.766c-23.985,2.938-42.343,24.234-55.744,41.912
	C463.025,443.234,453.06,467.236,450.022,492.325z"/>
<path fill="#9A6A4B" d="M592.394,423.024c-0.353-1.242-0.772-2.463-1.196-3.68c-0.526,31.668-16.84,67.919-30.139,89.266
	c-13.384,21.486-36.246,41.235-62.899,41.681c-17.571,0.295-35.666-9.949-46.904-23.971c1.496,6.897,3.852,13.579,7.296,19.73
	c21.194,37.861,68.675,28.962,94.416,3.518C582.333,520.542,604.401,465.355,592.394,423.024z"/>
<path fill="#91654C" d="M559.223,395.782c-9.542,14.205-20.185,27.323-31.194,40.08c-1.369,1.595-2.948,3.35-3.162,3.893
	l0.085,0.085l0.046,0.904c0.008,1.03,1.603,5.922,2.69,9.617c2.412,7.82,5.015,15.781,7.398,23.893
	c2.421,8.124,4.758,16.287,6.482,25.108l0.166,0.831c0.088,0.485,0.176,0.972,0.229,1.452c0.119,0.96,0.166,1.905,0.149,2.821
	c-0.02,1.841-0.292,3.571-0.716,5.201c-0.445,1.676-0.947,3.062-1.759,4.721c-0.865,1.757-1.934,3.223-3.004,4.458
	c-2.151,2.465-4.305,3.983-6.014,5.245l-5.111,3.712c-13.65,9.873-27.557,19.435-42.31,27.968c-1.369,0.791-3.121,0.324-3.912-1.045
	c-0.631-1.089-0.46-2.422,0.322-3.32c11.218-12.828,23.281-24.631,35.603-36.122c2.909-2.765,6.841-6.146,7.8-7.664l0.399-0.828
	l0.278-1.235l0.014-1.047l-0.065-0.319l-0.039-0.102l-0.185-0.707c-1.98-7.586-4.526-15.527-6.935-23.505
	c-2.475-7.983-4.892-16.076-7.006-24.448c-0.543-2.09-1.038-4.224-1.496-6.383c-0.426-2.139-1.106-5.016-0.972-8.612
	c0.085-1.771,0.417-3.625,0.947-5.32c0.663-2.222,1.824-4.151,2.894-5.52c2.288-2.848,3.866-3.914,5.396-5.352
	c12.604-11.189,25.569-22.017,39.637-31.759c1.084-0.753,2.575-0.482,3.325,0.604C559.778,393.918,559.751,394.988,559.223,395.782z
	"/>
<path fill="#A07152" d="M224.782,540.576c11.591,13.608,27.269,25.841,45.281,30.144c42.205,10.078,67.844-30.863,66.582-67.038
	c-1.437-41.262-27.055-94.894-66.319-114.755c-23.403-11.84-53.269-9.072-70.299,14.638c-14.097,19.627-10.884,47.559-6.97,69.395
	C197.501,497.743,208.395,521.338,224.782,540.576z"/>
<path fill="#9A6A4B" d="M270.326,388.927c-1.152-0.585-2.334-1.104-3.515-1.615c22.926,21.849,38.521,58.417,45.206,82.663
	c6.723,24.402,5.749,54.599-11.988,74.497c-11.693,13.121-31.488,19.481-49.415,18.241c6.083,3.574,12.595,6.37,19.45,8.007
	c42.205,10.078,67.844-30.863,66.582-67.038C335.208,462.42,309.591,408.788,270.326,388.927z"/>
<path fill="#91654C" d="M227.812,394.849c3.978,16.643,6.407,33.362,8.329,50.102c0.243,2.09,0.465,4.438,0.716,4.965l0.122-0.005
	l0.694,0.577c0.765,0.695,5.442,2.836,8.896,4.541c7.384,3.527,15.001,7.009,22.58,10.755c7.615,3.725,15.201,7.542,22.855,12.254
	l0.724,0.441l1.223,0.816c0.787,0.562,1.515,1.169,2.178,1.803c1.338,1.262,2.426,2.636,3.335,4.051
	c0.931,1.462,1.61,2.772,2.28,4.495c0.704,1.822,1.057,3.605,1.242,5.23c0.356,3.25,0.012,5.861-0.219,7.975l-0.736,6.273
	c-1.993,16.728-4.39,33.434-8.115,50.065c-0.346,1.545-1.875,2.514-3.42,2.168c-1.228-0.273-2.092-1.303-2.222-2.487
	c-1.829-16.943-2.329-33.813-2.429-50.66c-0.061-4.012,0.119-9.196-0.346-10.931c-0.112-0.453-0.236-0.735-0.341-0.855l-0.719-1.038
	l-0.76-0.724l-0.28-0.168l-0.1-0.041l-0.646-0.341c-6.918-3.683-14.485-7.199-21.983-10.833
	c-7.547-3.591-15.133-7.298-22.726-11.418c-1.905-1.018-3.808-2.102-5.703-3.228c-1.863-1.135-4.438-2.587-6.992-5.123
	c-1.247-1.262-2.385-2.762-3.269-4.302c-1.184-1.993-1.818-4.156-2.097-5.868c-0.546-3.613-0.258-5.496-0.278-7.598
	c0.314-16.848,1.14-33.72,3.513-50.668c0.183-1.308,1.391-2.219,2.699-2.037C226.821,393.178,227.588,393.923,227.812,394.849z"/>
<path fill="#E3B97E" d="M149.099,256.671c-4.212,0-7.949-3.021-8.714-7.313l-2.421-13.634c-0.855-4.816,2.355-9.418,7.176-10.275
	c4.799-0.826,9.418,2.358,10.273,7.177l2.424,13.63c0.857,4.821-2.356,9.42-7.174,10.278
	C150.139,256.625,149.615,256.671,149.099,256.671z"/>
<path fill="#E3B97E" d="M182.804,265.107c-4.56,0-8.434-3.498-8.821-8.122l-1.228-14.724c-0.407-4.877,3.215-9.159,8.09-9.566
	c4.906-0.48,9.162,3.216,9.568,8.09l1.228,14.724c0.407,4.877-3.215,9.159-8.09,9.566L182.804,265.107z"/>
<path fill="#E3B97E" d="M162.336,298.844c-4.463,0-8.304-3.364-8.797-7.903l-1.607-14.794c-0.531-4.865,2.986-9.238,7.851-9.768
	c4.826-0.516,9.238,2.986,9.766,7.851l1.608,14.794c0.528,4.865-2.987,9.24-7.852,9.768L162.336,298.844z"/>
<path fill="#E3B97E" d="M331.218,321.94c-4.098,0-7.776-2.86-8.658-7.031l-2.224-10.506c-1.011-4.79,2.054-9.489,6.84-10.499
	c4.77-1.009,9.491,2.051,10.5,6.841l2.22,10.497c1.016,4.789-2.047,9.491-6.834,10.502
	C332.443,321.877,331.827,321.94,331.218,321.94z"/>
<path fill="#E3B97E" d="M216.807,674.727c-4.434,0-8.261-3.32-8.789-7.829l-1.364-11.669c-0.57-4.86,2.909-9.264,7.769-9.832
	c4.896-0.585,9.264,2.911,9.832,7.768l1.364,11.666c0.572,4.86-2.906,9.265-7.766,9.834L216.807,674.727z"/>
<path fill="#E3B97E" d="M248.027,695.703c-4.49,0-8.339-3.401-8.802-7.964l-2.031-20.012c-0.497-4.87,3.052-9.218,7.917-9.713
	c4.884-0.494,9.216,3.05,9.713,7.917l2.032,20.015c0.494,4.867-3.052,9.218-7.92,9.71L248.027,695.703z"/>
<path fill="#A07152" d="M624.957,132.472c-4.825,0-8.777-3.871-8.857-8.714l-0.173-10.529c-0.078-4.891,3.82-8.923,8.716-9.006
	c4.85-0.02,8.923,3.822,9.003,8.718l0.173,10.521c0.078,4.896-3.82,8.928-8.714,9.009H624.957z"/>
<path fill="#A07152" d="M654.221,146.157l-0.974-0.051c-4.863-0.531-8.376-4.906-7.844-9.771c0.339-3.111,0.088-6.351-0.728-9.374
	c-1.274-4.724,1.523-9.586,6.248-10.863c4.726-1.269,9.588,1.52,10.863,6.249c1.405,5.201,1.82,10.558,1.235,15.912
	C662.523,142.798,658.684,146.157,654.221,146.157z"/>
<path fill="#A07152" d="M175.038,58.801c-4.392,0-8.204-3.26-8.78-7.732l-1.084-8.407c-0.626-4.855,2.799-9.301,7.649-9.929
	c4.843-0.614,9.298,2.796,9.929,7.649l1.084,8.426c0.624,4.855-2.804,9.294-7.659,9.92L175.038,58.801z"/>
</svg>
