<?xml version="1.0" encoding="utf-8"?>
<svg version="1.1" id="preloader" xmlns="http://www.w3.org/2000/svg" xmlns:xlink="http://www.w3.org/1999/xlink" x="0px" y="0px"
	 width="150px" height="150px" viewBox="0 0 150 150" enable-background="new 0 0 150 150" xml:space="preserve">
<g id="preloader-loading">
	<animateTransform
		attributeName="transform"
		attributeType="XML"
		type="rotate"
		from="0 75 75"
		to="360 75 75"
		dur="10s"
		repeatCount="indefinite" />
	<g id="preloader-loading-19">
		<g>
			<path fill="#451E08" d="M75.506,17.842c-0.019,2.002-0.229,3.986-0.532,5.962c-0.12,0.784-0.244,1.567-0.38,2.348
				c-0.099,0.568-0.233,0.664-0.809,0.708c-0.783,0.06-1.524-0.141-2.254-0.375c-0.207-0.067-0.4-0.23-0.558-0.39
				c-2.385-2.41-4.145-5.196-4.946-8.519c-0.442-1.831-0.511-3.695-0.229-5.57c0.508-3.367,1.895-6.349,3.886-9.077
				c0.574-0.787,1.168-1.555,1.868-2.232c0.236-0.228,0.51-0.428,0.797-0.587c0.362-0.2,0.667-0.118,0.966,0.187
				c0.335,0.342,0.486,0.779,0.599,1.226c0.227,0.896,0.342,1.81,0.39,2.733c0.095,1.816,0.174,3.632,0.291,5.447
				c0.071,1.098,0.2,2.192,0.306,3.288c0.012,0.127,0.033,0.256,0.073,0.376c0.438,1.304,0.56,2.65,0.534,4.016
				C75.503,17.535,75.506,17.689,75.506,17.842z"/>
			<path fill="#461D08" d="M77.296,20.552c0.113-2.56,0.328-5.111,0.659-7.649c0.236-1.809,0.11-3.571-0.319-5.328
				c-0.51-2.091-1.191-4.128-1.986-6.126c-0.123-0.308-0.255-0.612-0.376-0.92c-0.081-0.206,0.046-0.392,0.242-0.351
				c2.294,0.484,4.481,1.222,6.353,2.704c1.731,1.37,2.818,3.137,3.293,5.293c0.346,1.572,0.334,3.147,0.116,4.733
				c-0.34,2.484-1.155,4.818-2.208,7.076c-0.758,1.625-1.627,3.189-2.721,4.615c-0.388,0.505-0.827,0.971-1.248,1.451
				c-0.084,0.095-0.185,0.176-0.287,0.253c-0.502,0.378-0.819,0.314-1.071-0.278c-0.158-0.372-0.263-0.778-0.317-1.179
				c-0.079-0.582-0.111-1.172-0.125-1.76C77.282,22.242,77.296,21.397,77.296,20.552z"/>
		</g>
	</g>
	<g id="preloader-loading-18">
		<g>
			<path fill="#451E08" d="M54.725,21.615c0.704,1.873,1.224,3.8,1.654,5.752c0.17,0.774,0.337,1.549,0.492,2.327
				c0.112,0.565,0.022,0.703-0.499,0.953c-0.709,0.339-1.472,0.42-2.238,0.466c-0.217,0.013-0.456-0.07-0.661-0.162
				c-3.093-1.384-5.739-3.346-7.685-6.154c-1.072-1.548-1.809-3.261-2.222-5.111c-0.741-3.323-0.522-6.606,0.35-9.87
				c0.251-0.941,0.528-1.873,0.937-2.757c0.138-0.298,0.321-0.584,0.532-0.835c0.266-0.317,0.579-0.351,0.968-0.175
				c0.436,0.198,0.734,0.55,1,0.926c0.535,0.754,0.971,1.564,1.349,2.407c0.743,1.659,1.472,3.324,2.236,4.973
				c0.462,0.998,0.977,1.972,1.471,2.955c0.057,0.114,0.123,0.226,0.204,0.324c0.879,1.058,1.478,2.269,1.946,3.552
				C54.611,21.329,54.669,21.471,54.725,21.615z"/>
			<path fill="#461D08" d="M57.372,23.494c-0.817-2.428-1.537-4.885-2.144-7.371c-0.432-1.772-1.186-3.37-2.219-4.853
				c-1.23-1.765-2.599-3.418-4.061-4.994c-0.225-0.243-0.459-0.478-0.683-0.722c-0.15-0.163-0.098-0.382,0.099-0.414
				c2.314-0.379,4.619-0.482,6.899,0.222c2.108,0.651,3.759,1.905,4.979,3.744c0.889,1.341,1.446,2.814,1.815,4.371
				c0.579,2.439,0.661,4.911,0.493,7.397c-0.121,1.789-0.367,3.563-0.873,5.288c-0.179,0.612-0.421,1.205-0.641,1.804
				c-0.044,0.119-0.109,0.231-0.176,0.34c-0.332,0.534-0.651,0.59-1.098,0.129c-0.281-0.29-0.526-0.63-0.721-0.985
				c-0.283-0.514-0.526-1.053-0.751-1.596C57.967,25.075,57.676,24.281,57.372,23.494z"/>
		</g>
	</g>
	<g id="preloader-loading-17">
		<g>
			<path fill="#451E08" d="M54.725,21.615c0.704,1.873,1.224,3.8,1.654,5.752c0.17,0.774,0.337,1.549,0.492,2.327
				c0.112,0.565,0.022,0.703-0.499,0.953c-0.709,0.339-1.472,0.42-2.238,0.466c-0.217,0.013-0.456-0.07-0.661-0.162
				c-3.093-1.384-5.739-3.346-7.685-6.154c-1.072-1.548-1.809-3.261-2.222-5.111c-0.741-3.323-0.522-6.606,0.35-9.87
				c0.251-0.941,0.528-1.873,0.937-2.757c0.138-0.298,0.321-0.584,0.532-0.835c0.266-0.317,0.579-0.351,0.968-0.175
				c0.436,0.198,0.734,0.55,1,0.926c0.535,0.754,0.971,1.564,1.349,2.407c0.743,1.659,1.472,3.324,2.236,4.973
				c0.462,0.998,0.977,1.972,1.471,2.955c0.057,0.114,0.123,0.226,0.204,0.324c0.879,1.058,1.478,2.269,1.946,3.552
				C54.611,21.329,54.669,21.471,54.725,21.615z"/>
			<path fill="#461D08" d="M57.372,23.494c-0.817-2.428-1.537-4.885-2.144-7.371c-0.432-1.772-1.186-3.37-2.219-4.853
				c-1.23-1.765-2.599-3.418-4.061-4.994c-0.225-0.243-0.459-0.478-0.683-0.722c-0.15-0.163-0.098-0.382,0.099-0.414
				c2.314-0.379,4.619-0.482,6.899,0.222c2.108,0.651,3.759,1.905,4.979,3.744c0.889,1.341,1.446,2.814,1.815,4.371
				c0.579,2.439,0.661,4.911,0.493,7.397c-0.121,1.789-0.367,3.563-0.873,5.288c-0.179,0.612-0.421,1.205-0.641,1.804
				c-0.044,0.119-0.109,0.231-0.176,0.34c-0.332,0.534-0.651,0.59-1.098,0.129c-0.281-0.29-0.526-0.63-0.721-0.985
				c-0.283-0.514-0.526-1.053-0.751-1.596C57.967,25.075,57.676,24.281,57.372,23.494z"/>
		</g>
	</g>
	<g id="preloader-loading-16">
		<g>
			<path fill="#321306" d="M54.725,21.615c0.704,1.873,1.224,3.8,1.654,5.752c0.17,0.774,0.337,1.549,0.492,2.327
				c0.112,0.565,0.022,0.703-0.499,0.953c-0.709,0.339-1.472,0.42-2.238,0.466c-0.217,0.013-0.456-0.07-0.661-0.162
				c-3.093-1.384-5.739-3.346-7.685-6.154c-1.072-1.548-1.809-3.261-2.222-5.111c-0.741-3.323-0.522-6.606,0.35-9.87
				c0.251-0.941,0.528-1.873,0.937-2.757c0.138-0.298,0.321-0.584,0.532-0.835c0.266-0.317,0.579-0.351,0.968-0.175
				c0.436,0.198,0.734,0.55,1,0.926c0.535,0.754,0.971,1.564,1.349,2.407c0.743,1.659,1.472,3.324,2.236,4.973
				c0.462,0.998,0.977,1.972,1.471,2.955c0.057,0.114,0.123,0.226,0.204,0.324c0.879,1.058,1.478,2.269,1.946,3.552
				C54.611,21.329,54.669,21.471,54.725,21.615z"/>
			<path fill="#331306" d="M57.372,23.494c-0.817-2.428-1.537-4.885-2.144-7.371c-0.432-1.772-1.186-3.37-2.219-4.853
				c-1.23-1.765-2.599-3.418-4.061-4.994c-0.225-0.243-0.459-0.478-0.683-0.722c-0.15-0.163-0.098-0.382,0.099-0.414
				c2.314-0.379,4.619-0.482,6.899,0.222c2.108,0.651,3.759,1.905,4.979,3.744c0.889,1.341,1.446,2.814,1.815,4.371
				c0.579,2.439,0.661,4.911,0.493,7.397c-0.121,1.789-0.367,3.563-0.873,5.288c-0.179,0.612-0.421,1.205-0.641,1.804
				c-0.044,0.119-0.109,0.231-0.176,0.34c-0.332,0.534-0.651,0.59-1.098,0.129c-0.281-0.29-0.526-0.63-0.721-0.985
				c-0.283-0.514-0.526-1.053-0.751-1.596C57.967,25.075,57.676,24.281,57.372,23.494z"/>
		</g>
	</g>
	<g id="preloader-loading-15">
		<g>
			<path fill="#220804" d="M36.707,32.652c1.332,1.492,2.512,3.1,3.616,4.765c0.438,0.66,0.873,1.322,1.298,1.991
				c0.309,0.487,0.275,0.648-0.122,1.069c-0.539,0.573-1.221,0.925-1.919,1.244c-0.198,0.091-0.45,0.1-0.675,0.089
				c-3.383-0.172-6.558-1.043-9.385-2.958c-1.558-1.055-2.863-2.386-3.915-3.962c-1.889-2.831-2.869-5.971-3.233-9.33
				c-0.105-0.969-0.183-1.938-0.121-2.91c0.021-0.327,0.089-0.661,0.195-0.972c0.133-0.392,0.414-0.537,0.839-0.513
				c0.477,0.027,0.883,0.248,1.267,0.502c0.77,0.509,1.47,1.107,2.126,1.756c1.291,1.278,2.572,2.567,3.878,3.829
				c0.791,0.764,1.622,1.485,2.438,2.223c0.094,0.085,0.196,0.167,0.307,0.228c1.201,0.669,2.196,1.581,3.096,2.607
				C36.498,32.427,36.604,32.539,36.707,32.652z"/>
			<path fill="#220703" d="M39.853,33.447c-1.638-1.968-3.195-3.999-4.657-6.097c-1.042-1.496-2.321-2.713-3.819-3.722
				c-1.784-1.201-3.656-2.247-5.588-3.187c-0.298-0.145-0.6-0.28-0.897-0.426c-0.199-0.098-0.229-0.321-0.057-0.422
				c2.021-1.191,4.133-2.121,6.513-2.289c2.2-0.155,4.192,0.416,5.993,1.689c1.313,0.928,2.363,2.101,3.269,3.419
				c1.419,2.065,2.387,4.34,3.127,6.719c0.533,1.712,0.942,3.455,1.093,5.247c0.053,0.635,0.042,1.276,0.053,1.914
				c0.002,0.127-0.018,0.255-0.042,0.381c-0.117,0.618-0.394,0.785-0.978,0.517c-0.367-0.168-0.718-0.398-1.027-0.657
				c-0.449-0.377-0.87-0.791-1.276-1.216C40.978,34.705,40.421,34.071,39.853,33.447z"/>
		</g>
	</g>
	<g id="preloader-loading-14">
		<g>
			<path fill="#0C0403" d="M23.886,49.465c1.78,0.909,3.46,1.982,5.09,3.135c0.646,0.457,1.291,0.917,1.928,1.387
				c0.463,0.342,0.49,0.505,0.272,1.041c-0.296,0.729-0.805,1.304-1.34,1.854c-0.152,0.156-0.384,0.256-0.598,0.327
				c-3.217,1.064-6.491,1.401-9.818,0.638c-1.833-0.42-3.53-1.189-5.079-2.278c-2.782-1.956-4.829-4.529-6.38-7.53
				c-0.447-0.865-0.869-1.741-1.162-2.67c-0.099-0.313-0.155-0.649-0.169-0.976c-0.017-0.414,0.192-0.651,0.598-0.783
				c0.455-0.148,0.912-0.088,1.362,0.01c0.902,0.196,1.77,0.5,2.616,0.869c1.665,0.724,3.324,1.463,4.997,2.167
				c1.013,0.426,2.048,0.798,3.075,1.191c0.119,0.045,0.243,0.084,0.368,0.102c1.361,0.189,2.618,0.679,3.827,1.311
				C23.611,49.33,23.749,49.396,23.886,49.465z"/>
			<path fill="#0F0503" d="M27.106,49.067c-2.237-1.243-4.421-2.573-6.541-4c-1.512-1.018-3.143-1.69-4.904-2.089
				c-2.096-0.475-4.219-0.772-6.36-0.949c-0.33-0.027-0.66-0.044-0.99-0.073c-0.22-0.019-0.33-0.216-0.206-0.373
				c1.455-1.841,3.089-3.473,5.248-4.491c1.996-0.941,4.059-1.129,6.198-0.594c1.559,0.391,2.961,1.104,4.281,2.005
				c2.068,1.412,3.791,3.183,5.339,5.133c1.114,1.404,2.125,2.881,2.911,4.497c0.279,0.573,0.499,1.175,0.74,1.766
				c0.048,0.117,0.075,0.245,0.098,0.37c0.114,0.619-0.084,0.875-0.725,0.836c-0.403-0.024-0.813-0.111-1.195-0.241
				c-0.555-0.189-1.097-0.423-1.628-0.673C28.61,49.833,27.861,49.444,27.106,49.067z"/>
		</g>
	</g>
	<g id="preloader-loading-13">
		<g>
			<path fill="#000102" d="M17.994,69.781c1.988,0.203,3.941,0.596,5.877,1.081c0.768,0.192,1.535,0.388,2.298,0.596
				c0.555,0.151,0.639,0.294,0.629,0.872c-0.013,0.787-0.281,1.507-0.581,2.214c-0.085,0.201-0.266,0.378-0.439,0.521
				c-2.616,2.156-5.548,3.655-8.925,4.148c-1.861,0.272-3.72,0.169-5.558-0.286c-3.3-0.817-6.136-2.476-8.664-4.713
				c-0.729-0.645-1.438-1.309-2.046-2.069c-0.205-0.256-0.379-0.549-0.51-0.849c-0.165-0.38-0.056-0.676,0.275-0.946
				c0.371-0.303,0.819-0.412,1.274-0.484c0.912-0.143,1.831-0.174,2.752-0.137c1.814,0.073,3.627,0.161,5.441,0.212
				c1.098,0.031,2.198,0.003,3.297-0.002c0.127-0.001,0.257-0.009,0.38-0.038c1.337-0.316,2.686-0.314,4.041-0.162
				C17.689,69.755,17.842,69.767,17.994,69.781z"/>
			<path fill="#000202" d="M20.854,68.245c-2.534-0.349-5.051-0.799-7.542-1.363c-1.777-0.402-3.54-0.439-5.326-0.173
				c-2.126,0.316-4.213,0.807-6.273,1.416c-0.317,0.094-0.632,0.198-0.949,0.29c-0.213,0.062-0.385-0.082-0.326-0.273
				c0.693-2.244,1.628-4.357,3.274-6.087c1.522-1.6,3.378-2.522,5.565-2.796c1.595-0.2,3.159-0.042,4.715,0.321
				c2.437,0.568,4.683,1.596,6.829,2.855c1.545,0.906,3.02,1.917,4.336,3.14c0.467,0.433,0.889,0.915,1.327,1.379
				c0.087,0.092,0.158,0.201,0.225,0.31c0.329,0.536,0.237,0.846-0.375,1.042c-0.384,0.123-0.798,0.191-1.201,0.208
				c-0.586,0.025-1.175,0.002-1.761-0.038C22.532,68.416,21.693,68.323,20.854,68.245z"/>
		</g>
	</g>
	<g id="preloader-loading-12">
		<g>
			<path fill="#F5F7F9" d="M19.827,90.858c1.927-0.53,3.89-0.871,5.87-1.119c0.785-0.098,1.571-0.194,2.358-0.276
				c0.572-0.06,0.701,0.043,0.901,0.586c0.272,0.739,0.282,1.507,0.256,2.275c-0.007,0.218-0.111,0.449-0.222,0.645
				c-1.661,2.957-3.855,5.416-6.826,7.097c-1.637,0.927-3.408,1.504-5.285,1.744c-3.372,0.432-6.614-0.089-9.779-1.26
				c-0.912-0.338-1.813-0.7-2.654-1.189c-0.283-0.165-0.551-0.374-0.781-0.608c-0.291-0.294-0.296-0.61-0.085-0.982
				c0.237-0.416,0.615-0.681,1.013-0.912c0.798-0.464,1.644-0.824,2.517-1.123c1.717-0.588,3.44-1.162,5.15-1.771
				c1.035-0.369,2.05-0.793,3.073-1.195c0.118-0.046,0.236-0.102,0.341-0.173c1.133-0.779,2.391-1.265,3.71-1.614
				C19.532,90.944,19.679,90.9,19.827,90.858z"/>
			<path fill="#F5F7F9" d="M21.939,88.391c-2.489,0.591-4.998,1.083-7.524,1.458c-1.802,0.268-3.459,0.872-5.029,1.765
				c-1.868,1.064-3.637,2.277-5.338,3.59c-0.262,0.202-0.518,0.413-0.781,0.614c-0.176,0.134-0.389,0.063-0.403-0.137
				c-0.163-2.343-0.053-4.652,0.858-6.861c0.842-2.042,2.24-3.574,4.181-4.621c1.415-0.763,2.931-1.183,4.513-1.407
				c2.478-0.352,4.942-0.206,7.398,0.191c1.767,0.285,3.507,0.695,5.176,1.359c0.591,0.235,1.159,0.531,1.735,0.805
				c0.114,0.054,0.22,0.13,0.321,0.207c0.5,0.38,0.526,0.703,0.027,1.107c-0.314,0.254-0.675,0.466-1.045,0.628
				c-0.537,0.235-1.095,0.428-1.656,0.602C23.565,87.943,22.75,88.16,21.939,88.391z"/>
		</g>
	</g>
	<g id="preloader-loading-11">
		<g>
			<path fill="#EEE9E6" d="M29.136,109.848c1.606-1.191,3.313-2.219,5.07-3.167c0.697-0.376,1.395-0.749,2.099-1.111
				c0.512-0.263,0.669-0.214,1.052,0.22c0.52,0.59,0.806,1.303,1.059,2.028c0.072,0.206,0.058,0.459,0.026,0.682
				c-0.483,3.359-1.642,6.445-3.806,9.088c-1.192,1.457-2.636,2.635-4.299,3.539c-2.988,1.623-6.2,2.311-9.573,2.364
				c-0.973,0.015-1.943,0.003-2.904-0.148c-0.324-0.051-0.649-0.15-0.948-0.284c-0.377-0.169-0.496-0.462-0.433-0.885
				c0.07-0.474,0.328-0.857,0.616-1.217c0.577-0.721,1.236-1.364,1.942-1.958c1.389-1.17,2.789-2.328,4.163-3.515
				c0.832-0.718,1.626-1.481,2.435-2.226c0.093-0.086,0.184-0.18,0.255-0.285c0.775-1.136,1.774-2.045,2.877-2.847
				C28.892,110.035,29.013,109.941,29.136,109.848z"/>
			<path fill="#EEE9E6" d="M30.216,106.783c-2.107,1.452-4.27,2.818-6.49,4.083c-1.583,0.902-2.911,2.065-4.052,3.466
				c-1.359,1.668-2.571,3.439-3.683,5.28c-0.171,0.284-0.334,0.573-0.506,0.855c-0.116,0.189-0.34,0.199-0.425,0.018
				c-0.997-2.126-1.727-4.318-1.674-6.708c0.049-2.209,0.8-4.143,2.232-5.822c1.044-1.224,2.306-2.163,3.7-2.945
				c2.184-1.225,4.534-1.98,6.967-2.499c1.751-0.373,3.521-0.621,5.316-0.606c0.636,0.005,1.272,0.076,1.908,0.123
				c0.126,0.009,0.252,0.042,0.374,0.077c0.604,0.174,0.744,0.465,0.424,1.023c-0.201,0.35-0.461,0.679-0.748,0.964
				c-0.416,0.413-0.867,0.795-1.327,1.16C31.571,105.777,30.888,106.274,30.216,106.783z"/>
		</g>
	</g>
	<g id="preloader-loading-10">
		<g>
			<path fill="#E4DACF" d="M44.664,124.188c1.068-1.692,2.289-3.269,3.586-4.788c0.514-0.603,1.031-1.203,1.557-1.795
				c0.383-0.431,0.547-0.442,1.06-0.175c0.697,0.362,1.222,0.924,1.719,1.508c0.141,0.166,0.219,0.407,0.27,0.626
				c0.761,3.307,0.793,6.604-0.272,9.852c-0.587,1.79-1.507,3.411-2.733,4.856c-2.201,2.595-4.948,4.398-8.074,5.669
				c-0.901,0.366-1.81,0.706-2.761,0.913c-0.32,0.07-0.659,0.095-0.986,0.078c-0.413-0.021-0.629-0.251-0.723-0.668
				c-0.105-0.467-0.004-0.918,0.135-1.358c0.278-0.881,0.661-1.719,1.105-2.529c0.874-1.594,1.761-3.18,2.615-4.785
				c0.517-0.971,0.982-1.969,1.468-2.957c0.056-0.114,0.106-0.235,0.135-0.358c0.313-1.34,0.917-2.548,1.656-3.696
				C44.505,124.45,44.583,124.318,44.664,124.188z"/>
			<path fill="#E4DACF" d="M44.566,120.939c-1.442,2.117-2.965,4.173-4.58,6.156c-1.151,1.414-1.97,2.979-2.529,4.698
				c-0.665,2.047-1.157,4.137-1.531,6.256c-0.058,0.326-0.105,0.655-0.164,0.981c-0.04,0.218-0.245,0.309-0.39,0.171
				c-1.696-1.621-3.167-3.402-3.98-5.649c-0.751-2.077-0.748-4.153-0.018-6.237c0.532-1.519,1.37-2.852,2.388-4.085
				c1.594-1.932,3.514-3.488,5.595-4.852c1.498-0.982,3.06-1.853,4.739-2.489c0.595-0.225,1.214-0.39,1.824-0.575
				c0.121-0.037,0.25-0.052,0.377-0.064c0.626-0.056,0.862,0.165,0.764,0.801c-0.061,0.399-0.185,0.8-0.35,1.17
				c-0.239,0.536-0.522,1.055-0.819,1.562C45.467,119.51,45.01,120.221,44.566,120.939z"/>
		</g>
	</g>
	<g id="preloader-loading-9">
		<g>
			<path fill="#DFCDBF" d="M64.315,131.939c0.386-1.964,0.956-3.876,1.617-5.763c0.262-0.748,0.527-1.495,0.804-2.238
				c0.202-0.54,0.351-0.61,0.925-0.547c0.781,0.086,1.472,0.419,2.147,0.784c0.192,0.104,0.351,0.3,0.477,0.486
				c1.902,2.808,3.121,5.871,3.3,9.285c0.098,1.881-0.175,3.726-0.797,5.517c-1.117,3.216-3.027,5.892-5.484,8.207
				c-0.708,0.668-1.433,1.314-2.246,1.85c-0.273,0.181-0.58,0.327-0.891,0.43c-0.393,0.13-0.677-0.007-0.915-0.362
				c-0.267-0.398-0.334-0.855-0.364-1.315c-0.058-0.923-0.004-1.842,0.118-2.758c0.24-1.802,0.495-3.603,0.713-5.408
				c0.132-1.092,0.206-2.192,0.302-3.289c0.011-0.127,0.014-0.257-0.003-0.383c-0.191-1.363-0.064-2.708,0.212-4.046
				C64.261,132.242,64.287,132.09,64.315,131.939z"/>
			<path fill="#DFCDBF" d="M63.052,128.946c-0.581,2.495-1.26,4.964-2.051,7.397c-0.564,1.735-0.763,3.49-0.664,5.296
				c0.118,2.15,0.413,4.276,0.829,6.387c0.064,0.325,0.139,0.648,0.201,0.974c0.042,0.218-0.117,0.377-0.302,0.3
				c-2.166-0.898-4.18-2.026-5.748-3.827c-1.45-1.665-2.195-3.602-2.266-5.809c-0.052-1.609,0.249-3.155,0.754-4.674
				c0.79-2.379,2.019-4.524,3.468-6.549c1.043-1.458,2.185-2.835,3.521-4.036c0.474-0.425,0.991-0.803,1.493-1.196
				c0.1-0.078,0.214-0.139,0.328-0.196c0.563-0.279,0.863-0.158,1.001,0.47c0.087,0.394,0.116,0.813,0.095,1.217
				c-0.029,0.586-0.106,1.173-0.2,1.753C63.377,127.287,63.207,128.115,63.052,128.946z"/>
		</g>
	</g>
	<g id="preloader-loading-8">
		<g>
			<path fill="#D8BFAC" d="M85.435,132.056c-0.349-1.971-0.506-3.96-0.57-5.959c-0.025-0.792-0.048-1.585-0.057-2.378
				c-0.007-0.577,0.107-0.696,0.665-0.845c0.759-0.203,1.524-0.142,2.285-0.046c0.216,0.027,0.436,0.153,0.62,0.281
				c2.786,1.93,5.027,4.345,6.425,7.464c0.77,1.719,1.18,3.538,1.246,5.433c0.119,3.403-0.698,6.589-2.154,9.638
				c-0.42,0.879-0.863,1.744-1.427,2.538c-0.19,0.267-0.423,0.515-0.676,0.723c-0.32,0.263-0.634,0.239-0.984-0.006
				c-0.392-0.274-0.62-0.676-0.813-1.095c-0.387-0.839-0.668-1.716-0.884-2.614c-0.426-1.767-0.837-3.539-1.285-5.3
				c-0.271-1.066-0.599-2.118-0.904-3.176c-0.035-0.122-0.079-0.245-0.141-0.356c-0.67-1.202-1.036-2.502-1.262-3.849
				C85.493,132.358,85.463,132.207,85.435,132.056z"/>
			<path fill="#D7BFAC" d="M83.177,129.722c0.358,2.537,0.615,5.085,0.755,7.64c0.1,1.822,0.547,3.531,1.291,5.179
				c0.885,1.962,1.927,3.838,3.076,5.656c0.177,0.28,0.363,0.554,0.539,0.835c0.117,0.188,0.026,0.394-0.173,0.389
				c-2.344-0.054-4.629-0.376-6.74-1.488c-1.952-1.028-3.346-2.564-4.208-4.597c-0.628-1.482-0.905-3.032-0.983-4.631
				c-0.121-2.504,0.251-4.949,0.872-7.361c0.447-1.737,1.015-3.434,1.828-5.038c0.288-0.568,0.635-1.107,0.961-1.656
				c0.065-0.109,0.15-0.207,0.236-0.301c0.424-0.464,0.748-0.46,1.103,0.076c0.223,0.336,0.401,0.716,0.528,1.101
				c0.184,0.557,0.324,1.132,0.445,1.707C82.882,128.058,83.022,128.892,83.177,129.722z"/>
		</g>
	</g>
	<g id="preloader-loading-7">
		<g>
			<path fill="#D2B399" d="M105.17,124.523c-1.036-1.712-1.9-3.51-2.681-5.35c-0.309-0.73-0.616-1.461-0.91-2.196
				c-0.214-0.535-0.151-0.687,0.316-1.029c0.635-0.464,1.37-0.684,2.114-0.87c0.211-0.053,0.461-0.015,0.68,0.037
				c3.294,0.791,6.255,2.232,8.683,4.635c1.338,1.324,2.376,2.872,3.121,4.615c1.338,3.13,1.725,6.397,1.467,9.767
				c-0.075,0.972-0.176,1.938-0.415,2.883c-0.081,0.318-0.209,0.633-0.37,0.919c-0.203,0.361-0.505,0.452-0.919,0.35
				c-0.464-0.114-0.822-0.406-1.153-0.727c-0.664-0.642-1.242-1.359-1.767-2.118c-1.035-1.494-2.057-2.997-3.11-4.477
				c-0.637-0.896-1.322-1.759-1.988-2.634c-0.077-0.101-0.162-0.2-0.26-0.281c-1.058-0.878-1.869-1.958-2.565-3.133
				C105.334,124.783,105.251,124.654,105.17,124.523z"/>
			<path fill="#D3B399" d="M102.223,123.163c1.249,2.236,2.407,4.519,3.459,6.851c0.75,1.663,1.784,3.094,3.071,4.362
				c1.533,1.509,3.181,2.881,4.908,4.161c0.266,0.197,0.538,0.386,0.803,0.584c0.177,0.133,0.167,0.357-0.021,0.425
				c-2.205,0.798-4.452,1.324-6.822,1.051c-2.191-0.252-4.045-1.18-5.581-2.764c-1.12-1.154-1.937-2.5-2.586-3.963
				c-1.016-2.291-1.55-4.705-1.841-7.18c-0.21-1.781-0.292-3.57-0.112-5.359c0.064-0.634,0.193-1.262,0.299-1.892
				c0.021-0.125,0.065-0.248,0.111-0.366c0.228-0.586,0.531-0.699,1.056-0.329c0.33,0.233,0.633,0.523,0.889,0.835
				c0.373,0.453,0.71,0.938,1.031,1.43C101.348,121.719,101.779,122.445,102.223,123.163z"/>
		</g>
	</g>
	<g id="preloader-loading-6">
		<g>
			<path fill="#CBA788" d="M120.856,110.357c-1.583-1.221-3.038-2.585-4.429-4.019c-0.552-0.568-1.101-1.139-1.641-1.719
				c-0.393-0.422-0.389-0.586-0.076-1.073c0.425-0.662,1.031-1.134,1.658-1.576c0.178-0.126,0.424-0.181,0.647-0.211
				c3.357-0.454,6.637-0.182,9.768,1.18c1.725,0.75,3.252,1.818,4.575,3.174c2.376,2.435,3.915,5.341,4.89,8.576
				c0.281,0.933,0.535,1.871,0.652,2.839c0.04,0.326,0.034,0.666-0.013,0.991c-0.059,0.41-0.308,0.604-0.731,0.659
				c-0.474,0.062-0.913-0.081-1.337-0.26c-0.85-0.359-1.648-0.818-2.412-1.335c-1.504-1.018-2.999-2.05-4.515-3.049
				c-0.918-0.605-1.867-1.161-2.804-1.737c-0.108-0.066-0.224-0.128-0.343-0.168c-1.303-0.436-2.449-1.15-3.521-1.993
				C121.103,110.54,120.979,110.45,120.856,110.357z"/>
			<path fill="#CCA889" d="M117.618,110.155c1.971,1.633,3.874,3.343,5.696,5.136c1.299,1.279,2.779,2.24,4.437,2.956
				c1.974,0.852,4.006,1.536,6.077,2.104c0.319,0.088,0.641,0.165,0.96,0.254c0.213,0.06,0.284,0.273,0.134,0.404
				c-1.768,1.542-3.674,2.846-5.982,3.449c-2.134,0.558-4.197,0.363-6.201-0.557c-1.461-0.671-2.708-1.63-3.841-2.759
				c-1.774-1.769-3.142-3.827-4.306-6.029c-0.838-1.585-1.56-3.223-2.037-4.957c-0.169-0.615-0.275-1.247-0.404-1.872
				c-0.025-0.124-0.029-0.254-0.028-0.382c0.002-0.629,0.243-0.844,0.866-0.689c0.391,0.098,0.778,0.259,1.13,0.457
				c0.511,0.288,1.001,0.618,1.477,0.961C116.281,109.125,116.945,109.646,117.618,110.155z"/>
		</g>
	</g>
	<g id="preloader-loading-5">
		<g>
			<path fill="#BF8D64" d="M130.375,91.471c-1.917-0.566-3.765-1.311-5.579-2.145c-0.719-0.33-1.438-0.664-2.15-1.009
				c-0.518-0.251-0.574-0.406-0.458-0.973c0.157-0.771,0.552-1.43,0.977-2.069c0.121-0.181,0.33-0.323,0.527-0.431
				c2.967-1.638,6.124-2.571,9.534-2.434c1.879,0.075,3.688,0.519,5.411,1.304c3.094,1.411,5.577,3.563,7.652,6.228
				c0.598,0.768,1.173,1.551,1.632,2.411c0.154,0.289,0.272,0.609,0.345,0.929c0.093,0.404-0.069,0.675-0.444,0.879
				c-0.42,0.229-0.881,0.255-1.341,0.241c-0.922-0.027-1.831-0.166-2.73-0.372c-1.769-0.406-3.535-0.826-5.309-1.21
				c-1.074-0.232-2.16-0.407-3.241-0.605c-0.125-0.023-0.255-0.038-0.381-0.032c-1.372,0.065-2.698-0.186-4.002-0.584
				C130.67,91.553,130.522,91.513,130.375,91.471z"/>
			<path fill="#C08D64" d="M127.282,92.454c2.427,0.81,4.818,1.715,7.164,2.728c1.673,0.723,3.399,1.083,5.203,1.151
				c2.148,0.081,4.289-0.018,6.425-0.237c0.329-0.034,0.657-0.078,0.987-0.111c0.22-0.022,0.364,0.152,0.27,0.329
				c-1.093,2.078-2.4,3.983-4.335,5.381c-1.789,1.292-3.783,1.857-5.983,1.724c-1.604-0.097-3.113-0.54-4.576-1.183
				c-2.292-1.007-4.31-2.431-6.189-4.063c-1.353-1.175-2.617-2.441-3.687-3.885c-0.379-0.512-0.706-1.063-1.051-1.6
				c-0.068-0.106-0.119-0.227-0.164-0.346c-0.225-0.587-0.078-0.875,0.559-0.956c0.4-0.05,0.819-0.04,1.219,0.017
				c0.58,0.083,1.156,0.214,1.724,0.362C125.664,91.978,126.471,92.223,127.282,92.454z"/>
		</g>
	</g>
	<g id="preloader-loading-4">
		<g>
			<path fill="#B6804F" d="M132.44,70.416c-1.991,0.166-3.983,0.14-5.976,0.019c-0.79-0.048-1.58-0.099-2.369-0.163
				c-0.574-0.046-0.682-0.171-0.778-0.742c-0.132-0.776-0.001-1.533,0.165-2.283c0.047-0.213,0.192-0.42,0.336-0.593
				c2.175-2.601,4.783-4.614,8.012-5.72c1.779-0.61,3.626-0.851,5.515-0.742c3.394,0.196,6.486,1.305,9.381,3.038
				c0.835,0.5,1.654,1.022,2.391,1.657c0.248,0.214,0.473,0.469,0.657,0.741c0.232,0.343,0.179,0.654-0.097,0.98
				c-0.309,0.366-0.729,0.556-1.163,0.71c-0.87,0.309-1.768,0.508-2.68,0.641c-1.796,0.262-3.595,0.509-5.387,0.793
				c-1.085,0.172-2.161,0.402-3.24,0.609c-0.125,0.024-0.251,0.056-0.367,0.108c-1.256,0.557-2.583,0.803-3.943,0.903
				C132.745,70.385,132.592,70.402,132.44,70.416z"/>
			<path fill="#B78151" d="M129.911,72.452c2.555-0.123,5.111-0.144,7.664-0.048c1.82,0.068,3.56-0.22,5.267-0.81
				c2.032-0.702,3.993-1.568,5.906-2.546c0.295-0.151,0.585-0.311,0.88-0.46c0.198-0.1,0.394,0.01,0.371,0.209
				c-0.269,2.333-0.801,4.582-2.102,6.586c-1.202,1.853-2.858,3.101-4.957,3.773c-1.531,0.49-3.098,0.623-4.694,0.553
				c-2.5-0.11-4.896-0.707-7.237-1.549c-1.685-0.606-3.32-1.329-4.839-2.288c-0.538-0.34-1.042-0.735-1.557-1.111
				c-0.102-0.075-0.192-0.169-0.278-0.263c-0.422-0.466-0.388-0.788,0.177-1.093c0.355-0.192,0.749-0.334,1.143-0.425
				c0.571-0.132,1.155-0.219,1.738-0.287C128.23,72.593,129.071,72.53,129.911,72.452z"/>
		</g>
	</g>
	<g id="preloader-loading-3">
		<g>
			<path fill="#9C6232" d="M126.773,50.035c-1.797,0.875-3.664,1.572-5.565,2.18c-0.754,0.241-1.509,0.48-2.267,0.705
				c-0.552,0.164-0.697,0.087-0.993-0.41c-0.403-0.676-0.554-1.43-0.669-2.189c-0.033-0.216,0.027-0.461,0.1-0.675
				c1.091-3.213,2.796-6.033,5.408-8.233c1.439-1.212,3.074-2.105,4.875-2.688c3.235-1.046,6.518-1.13,9.843-0.562
				c0.959,0.164,1.91,0.354,2.827,0.68c0.309,0.11,0.61,0.267,0.88,0.453c0.34,0.236,0.403,0.545,0.263,0.949
				c-0.156,0.453-0.479,0.783-0.829,1.083c-0.7,0.603-1.465,1.113-2.268,1.568c-1.58,0.894-3.168,1.775-4.737,2.689
				c-0.95,0.553-1.87,1.156-2.802,1.74c-0.108,0.067-0.214,0.144-0.303,0.233c-0.971,0.974-2.119,1.683-3.351,2.269
				C127.046,49.896,126.91,49.967,126.773,50.035z"/>
			<path fill="#9C6333" d="M125.149,52.849c2.338-1.039,4.714-1.984,7.129-2.818c1.722-0.595,3.24-1.494,4.619-2.661
				c1.641-1.39,3.158-2.907,4.589-4.512c0.22-0.247,0.433-0.502,0.655-0.748c0.148-0.165,0.371-0.133,0.421,0.06
				c0.59,2.273,0.905,4.563,0.415,6.902c-0.453,2.163-1.547,3.925-3.262,5.312c-1.251,1.011-2.664,1.702-4.178,2.214
				c-2.371,0.802-4.82,1.112-7.307,1.174c-1.79,0.045-3.575-0.038-5.337-0.383c-0.624-0.122-1.237-0.309-1.853-0.472
				c-0.122-0.032-0.24-0.088-0.354-0.145c-0.562-0.282-0.646-0.595-0.229-1.084c0.262-0.307,0.578-0.583,0.912-0.81
				c0.485-0.33,0.998-0.622,1.517-0.896C123.632,53.589,124.394,53.225,125.149,52.849z"/>
		</g>
	</g>
	<g id="preloader-loading-2">
		<g>
			<path fill="#814C1A" d="M114.139,33.082c-1.36,1.467-2.85,2.792-4.403,4.047c-0.616,0.498-1.234,0.993-1.86,1.478
				c-0.455,0.353-0.619,0.334-1.074-0.023c-0.619-0.485-1.032-1.133-1.414-1.799c-0.108-0.189-0.141-0.44-0.15-0.665
				c-0.142-3.39,0.432-6.637,2.074-9.634c0.905-1.651,2.107-3.076,3.577-4.27c2.64-2.146,5.67-3.413,8.976-4.086
				c0.953-0.194,1.909-0.361,2.882-0.389c0.327-0.009,0.665,0.028,0.984,0.105c0.402,0.097,0.572,0.363,0.588,0.79
				c0.018,0.479-0.165,0.903-0.382,1.31c-0.435,0.815-0.965,1.568-1.55,2.282c-1.151,1.406-2.314,2.802-3.448,4.222
				c-0.686,0.859-1.327,1.755-1.985,2.637c-0.076,0.102-0.148,0.211-0.199,0.327c-0.554,1.259-1.369,2.336-2.306,3.328
				C114.344,32.853,114.242,32.968,114.139,33.082z"/>
			<path fill="#824C1C" d="M113.639,36.293c1.805-1.815,3.68-3.556,5.631-5.208c1.391-1.178,2.483-2.565,3.348-4.153
				c1.029-1.89,1.896-3.854,2.652-5.868c0.116-0.31,0.223-0.624,0.341-0.934c0.079-0.207,0.298-0.258,0.414-0.096
				c1.37,1.906,2.49,3.927,2.876,6.285c0.358,2.18-0.027,4.22-1.126,6.134c-0.802,1.395-1.87,2.551-3.097,3.576
				c-1.922,1.606-4.094,2.781-6.39,3.739c-1.653,0.689-3.347,1.259-5.115,1.574c-0.626,0.112-1.265,0.16-1.898,0.23
				c-0.126,0.014-0.256,0.005-0.382-0.007c-0.625-0.06-0.817-0.321-0.605-0.928c0.133-0.381,0.329-0.753,0.559-1.085
				c0.333-0.483,0.706-0.941,1.091-1.385C112.492,37.532,113.071,36.917,113.639,36.293z"/>
		</g>
	</g>
	<g id="preloader-loading-1">
		<g>
			<path fill="#6B3709" d="M96.244,21.845c-0.739,1.86-1.651,3.634-2.646,5.367c-0.395,0.687-0.792,1.373-1.201,2.051
				c-0.297,0.494-0.457,0.535-1.01,0.367c-0.752-0.228-1.37-0.683-1.967-1.166c-0.169-0.137-0.29-0.359-0.38-0.566
				c-1.355-3.11-1.991-6.345-1.54-9.734c0.248-1.867,0.856-3.631,1.796-5.276c1.688-2.956,4.057-5.234,6.897-7.058
				c0.819-0.526,1.65-1.027,2.547-1.405c0.302-0.127,0.63-0.215,0.955-0.258c0.41-0.055,0.664,0.131,0.833,0.524
				c0.189,0.44,0.172,0.902,0.116,1.36c-0.112,0.918-0.334,1.811-0.622,2.689c-0.566,1.727-1.148,3.45-1.692,5.184
				c-0.33,1.05-0.604,2.117-0.9,3.177c-0.034,0.122-0.061,0.25-0.067,0.377c-0.062,1.375-0.434,2.674-0.95,3.938
				C96.353,21.557,96.3,21.702,96.244,21.845z"/>
			<path fill="#6B3709" d="M96.936,25.02c1.029-2.346,2.149-4.648,3.373-6.894c0.872-1.602,1.39-3.291,1.624-5.084
				c0.278-2.135,0.378-4.28,0.357-6.431c-0.003-0.331-0.017-0.663-0.019-0.994c-0.001-0.222,0.184-0.349,0.352-0.239
				c1.965,1.282,3.738,2.761,4.949,4.82c1.12,1.904,1.497,3.945,1.162,6.127c-0.244,1.591-0.824,3.055-1.598,4.456
				c-1.213,2.193-2.814,4.075-4.61,5.799c-1.293,1.241-2.667,2.385-4.202,3.319c-0.544,0.331-1.122,0.606-1.687,0.901
				c-0.112,0.058-0.236,0.097-0.359,0.132c-0.605,0.171-0.877-0.003-0.898-0.646c-0.013-0.404,0.035-0.821,0.129-1.214
				c0.137-0.571,0.319-1.133,0.518-1.686C96.313,26.59,96.632,25.808,96.936,25.02z"/>
		</g>
	</g>
</g>
<g id="preloader-logo">
	<g id="preloader-logo-path3">
		<path fill="#231F20" d="M72.088,70.935c0.443-1.762,0.841-3.522,1.187-5.263l0,0H58.283v0c-0.347,1.741-0.745,3.5-1.187,5.263
			c-1.213,4.826-2.78,9.673-4.679,14.226c-0.406,0.973-0.826,1.934-1.262,2.878h14.993c0.436-0.943,0.856-1.904,1.262-2.878h10.233
			V70.935H72.088z"/>
	</g>
	<g id="preloader-logo-path2">
		<path fill="#774936" d="M102.772,48.166H75.704v-3.748H59.135v3.706h-3.25c0.573,4.585,0.545,9.427,0.113,14.184h46.773V48.166z"
			/>
	</g>
	<g id="preloader-logo-path1">
		<path fill="#774936" d="M50.105,105.539l43.147,0.043l9.52-19.934l-16.036-3.876l-5.282,9.626H48.095
			c-0.296,0.516-0.586,0.973-0.867,1.366L50.105,105.539z"/>
	</g>
</g>
</svg>
